<svg xmlns="http://www.w3.org/2000/svg" viewBox="-247.422 -177.478 528.446 177.478" xmlns:v="https://vecta.io/nano"><style><![CDATA[.G{fill:#3b2d55}.H{fill:#57d1e5}.I{fill:#373535}]]></style><defs><clipPath id="A"><path d="M0 792h612V0H0z"/></clipPath><clipPath id="B"><path d="M0 792h612V0H0z"/></clipPath><clipPath id="C"><path d="M0 792h612V0H0z"/></clipPath><clipPath id="D"><path d="M96.008 715.93h88.29v-62.176h-88.29z"/></clipPath><clipPath id="E"><path d="M0 792h612V0H0z"/></clipPath><clipPath id="F"><path d="M0 792h612V0H0z"/></clipPath><clipPath id="G"><path d="M0 792h612V0H0z"/></clipPath><clipPath id="H"><path d="M0 792h612V0H0z"/></clipPath><clipPath id="I"><path d="M121.202 708.378h45.899v-45.859h-45.899z"/></clipPath><clipPath id="J"><path d="M0 792h612V0H0z"/></clipPath><clipPath id="K"><path d="M40.403 726.188h212.402V664.37H40.403z"/></clipPath><clipPath id="L"><path d="M0 792h612V0H0z"/></clipPath><clipPath id="M"><path d="M39.52 688.644H238.9v-73.818H39.52z"/></clipPath></defs><path d="M166.509-56.841c-.533-.639-.485-1.58.111-2.161.64-.534 1.582-.485 2.163.111.536.64.487 1.586-.112 2.167-.3.214-.657.332-1.025.34-.425.005-.834-.159-1.137-.457zm79.018-3.075c-.669-.517-.818-1.465-.34-2.162.516-.668 1.465-.817 2.161-.34.669.517.818 1.465.34 2.162-.326.344-.774.548-1.248.568-.323.082-.666-.004-.913-.228zm-84.032-3.659c-.436-.73-.237-1.672.457-2.163.726-.452 1.681-.251 2.161.457a1.64 1.64 0 0 1-.451 2.162 2.04 2.04 0 0 1-.797.228 1.49 1.49 0 0 1-1.37-.684zm88.7-3.187c-.752-.38-1.058-1.295-.685-2.05a1.53 1.53 0 0 1 2.05-.681c.753.38 1.059 1.295.686 2.051a1.38 1.38 0 0 1-1.365.796c-.234.075-.49.032-.686-.116zm-92.684-4.324c-.352-.786.007-1.708.797-2.05a1.54 1.54 0 0 1 2.05.797c.353.785-.006 1.707-.796 2.05-.178.081-.373.119-.569.112-.631.038-1.221-.317-1.482-.893v-.016zm96.099-3.075c-.803-.271-1.253-1.123-1.025-1.939a1.44 1.44 0 0 1 1.939-.908c.8.271 1.25 1.119 1.025 1.933a1.47 1.47 0 0 1-1.482 1.026c-.112.015-.228-.096-.457-.096v-.016zm-98.717-4.897a1.53 1.53 0 0 1 1.137-1.822 1.53 1.53 0 0 1 1.821 1.137 1.53 1.53 0 0 1-1.136 1.822h-.34a1.47 1.47 0 0 1-1.482-1.122v-.015zm100.885-2.959c-.811-.138-1.366-.895-1.254-1.71.139-.808.892-1.362 1.705-1.254a1.53 1.53 0 0 1 1.253 1.711c-.107.732-.742 1.269-1.481 1.253h-.223zm-102.25-5.337a1.44 1.44 0 1 1 2.958-.229 1.44 1.44 0 0 1-1.365 1.593h-.117a1.41 1.41 0 0 1-1.476-1.364zm101.676-4.329v-.224a1.51 1.51 0 0 1 1.482-1.482c.819.043 1.491.667 1.593 1.482v.112.112a1.51 1.51 0 0 1-1.482 1.482c-.85.033-1.564-.633-1.593-1.482zm0-.224zm-100.311-2.278c-.812-.073-1.417-.78-1.365-1.594a1.51 1.51 0 0 1 1.593-1.37 1.51 1.51 0 0 1 1.365 1.594c-.061.772-.707 1.367-1.482 1.365h-.111v.005zm99.636-5.694c-.112-.815.443-1.572 1.254-1.71.813-.109 1.566.445 1.705 1.253a1.53 1.53 0 0 1-1.259 1.705h-.228c-.75.055-1.404-.5-1.472-1.248zm-98.605-2.39a1.53 1.53 0 0 1-1.137-1.822c.194-.813 1.005-1.321 1.821-1.142a1.53 1.53 0 0 1 1.137 1.822 1.47 1.47 0 0 1-1.482 1.142h-.339zm96.667-5.237a1.53 1.53 0 0 1 .913-1.939c.786-.274 1.647.133 1.933.914a1.52 1.52 0 0 1-.908 1.933.68.68 0 0 1-.457.117c-.657-.01-1.244-.414-1.487-1.025h.006zm-94.277-2.619c-.791-.341-1.149-1.264-.797-2.05a1.54 1.54 0 0 1 2.05-.797c.791.343 1.149 1.265.797 2.051a1.77 1.77 0 0 1-1.482.908 5.06 5.06 0 0 1-.574-.112h.006zm91.09-4.668c-.392-.755-.082-1.684.685-2.051a1.5 1.5 0 1 1 1.365 2.73 1.59 1.59 0 0 1-.685.229c-.555-.12-1.044-.444-1.37-.908h.005zm-87.559-2.735c-.707-.481-.909-1.436-.456-2.162a1.59 1.59 0 0 1 2.162-.457c.708.481.909 1.435.457 2.161a1.43 1.43 0 0 1-1.254.686c-.318-.007-.63-.085-.914-.228h.005zm83.347-3.984c-.478-.697-.328-1.646.34-2.162.696-.477 1.645-.328 2.161.34.478.697.329 1.645-.339 2.162-.247.227-.573.349-.909.339a2.68 2.68 0 0 1-1.258-.679h.005zm-78.677-2.736c-.661-.549-.715-1.544-.117-2.161.551-.663 1.55-.714 2.166-.112.656.553.707 1.545.112 2.162a1.6 1.6 0 0 1-1.137.569c-.363-.102-.711-.256-1.03-.458h.006zm73.296-3.186c-.623-.586-.623-1.577 0-2.162.586-.628 1.581-.628 2.168 0 .624.585.624 1.576 0 2.162a1.48 1.48 0 0 1-1.143.456 4.26 4.26 0 0 1-1.003-.456h-.022zm-67.518-2.73c-.564-.653-.46-1.647.229-2.168.651-.56 1.641-.456 2.161.229.565.651.46 1.643-.228 2.161a1.29 1.29 0 0 1-.909.346c-.487.071-.97-.152-1.232-.568h-.021zm61.373-2.279c-.722-.483-.881-1.478-.345-2.162a1.5 1.5 0 0 1 2.167-.345c.718.488.874 1.482.34 2.167-.288.411-.752.664-1.254.68l-.886-.34h-.022zm-54.749-2.507c-.474-.716-.203-1.684.573-2.05.714-.473 1.681-.202 2.045.573.474.713.206 1.68-.569 2.046a1.63 1.63 0 0 1-.796.228 1.85 1.85 0 0 1-1.253-.797zm47.935-1.477a1.42 1.42 0 0 1-.68-2.039 1.42 1.42 0 0 1 2.05-.685 1.42 1.42 0 0 1 .68 2.05c-.23.551-.769.909-1.365.908-.34-.122-.568-.122-.685-.234zm-40.649-2.278c-.329-.789.096-1.69.915-1.939a1.44 1.44 0 0 1 1.932.914c.333.788-.093 1.69-.913 1.933a1.01 1.01 0 0 1-.568.117c-.597-.094-1.109-.478-1.366-1.025zm33.138-.568c-.824-.246-1.287-1.12-1.024-1.939a1.53 1.53 0 0 1 1.932-1.025 1.64 1.64 0 0 1 1.025 1.938 1.59 1.59 0 0 1-1.481 1.137.69.69 0 0 1-.452-.111zm-25.394-2.051c-.128-.805.357-1.583 1.137-1.821a1.53 1.53 0 0 1 1.822 1.136 1.53 1.53 0 0 1-1.137 1.822h-.34a1.28 1.28 0 0 1-1.482-1.137zm17.651.569c-.837-.119-1.436-.869-1.366-1.711.118-.834.866-1.432 1.705-1.365.837.118 1.436.869 1.365 1.711-.114.79-.795 1.373-1.593 1.365h-.111zm-9.561-1.822a1.53 1.53 0 0 1 1.481-1.594 1.53 1.53 0 0 1 1.615 1.456 1.53 1.53 0 0 1-1.481 1.593h-.112a1.44 1.44 0 0 1-1.509-1.455h.006z" fill="#b03831"/><path d="M164.448-63.305c-.715 4.71 3.936 8.427 8.372 6.692a6.19 6.19 0 0 0 3.77-4.35c11.25-52.784 11.324-50.83 11.324-64.018 0-22.732-18.059-38.773-43.458-38.773s-43.458 16.046-43.458 38.773c0 10.884 11.324 64.018 11.324 64.018 1.03 4.651 6.708 6.444 10.221 3.227a6.19 6.19 0 0 0 1.927-5.569" class="H"/><path d="M118.361-55.114a7.22 7.22 0 0 1-7.016-5.625C110.883-62.928 100-114.114 100-124.981c0-11.275 4.451-21.452 12.535-28.681s19.381-11.122 31.921-11.122 23.901 3.952 31.927 11.122 12.534 17.384 12.534 28.681-.132 11.951-7.031 44.085l-4.313 20.141a7.21 7.21 0 0 1-8.185 5.539c-3.918-.645-6.572-4.34-5.933-8.259.137-.76 1.045-1.088 1.636-.589.265.224.396.569.345.913-.659 3.936 3.189 7.109 6.927 5.712a5.18 5.18 0 0 0 3.249-3.746l4.313-20.131c6.99-32.548 6.99-32.548 6.99-43.67 0-10.697-4.217-20.343-11.87-27.162s-18.537-10.623-30.589-10.623-22.908 3.771-30.588 10.623-11.866 16.465-11.866 27.162 11.191 63.285 11.303 63.816c.82 3.906 5.56 5.46 8.532 2.797a5.18 5.18 0 0 0 1.644-4.772c-.125-.763.623-1.374 1.346-1.101.335.126.578.423.636.776a7.2 7.2 0 0 1-7.096 8.356h-.006z" class="G"/><path d="M115.116-78.533l3.086 17.31c.996 4.658 6.661 6.492 10.197 3.3a6.19 6.19 0 0 0 2.019-5.121" class="H"/><path d="M115.769-78.65l1.158 5.615 1.137 5.763.621 3.25.324 1.673.159.84v.105-.036.042.048l.048.213.048.207.027.1v.08c.148.441.35.862.6 1.254a5.56 5.56 0 0 0 .935 1.062 5.07 5.07 0 0 0 1.168.759 2.25 2.25 0 0 0 .314.138l.318.117a6.02 6.02 0 0 0 .659.16 5.73 5.73 0 0 0 1.301.074c.112 0 .213-.027.319-.037h.159.059s.058 0-.038 0h.09a4.6 4.6 0 0 0 .665-.17l.26-.091.271-.122a3.96 3.96 0 0 0 .531-.271c.17-.1.313-.217.473-.318s.281-.234.409-.361c.468-.461.851-1 1.131-1.594a4.8 4.8 0 0 0 .43-1.439c0-.101 0-.202.043-.292s0-.181 0-.261a2.2 2.2 0 0 0 0-.414v-.345-.143a1 1 0 1 1 1.997-.133 4.41 4.41 0 0 0 .037.472 3.93 3.93 0 0 1 0 .574v.367c0 .127-.032.265-.048.414-.089.698-.282 1.378-.573 2.019a7.27 7.27 0 0 1-1.562 2.225c-.175.175-.383.334-.579.504s-.425.314-.659.452a6.84 6.84 0 0 1-.727.388l-.388.175-.436.143a5.57 5.57 0 0 1-.78.207h-.096-.074-.037l-.218.032-.446.053c-.617.043-1.237.004-1.843-.117-.311-.057-.619-.135-.919-.233l-.446-.176a2.49 2.49 0 0 1-.441-.196c-.578-.279-1.114-.637-1.594-1.062a7.56 7.56 0 0 1-1.29-1.498c-.175-.283-.333-.575-.473-.876l-.197-.468-.169-.531-.038-.128v-.106l-.048-.207-.048-.213-.031-.153v-.107l-.207-.759-.277-1.678-.531-3.267-.924-5.8-.855-5.662a.67.67 0 0 1 1.312-.239l-.011-.022z" class="G"/><circle cx="159.169" cy="-128.991" r="19.386" fill="#fff"/><g class="G"><path d="M159.169-108.6c-15.697 0-25.508-16.992-17.659-30.586s27.469-13.594 35.318 0c1.789 3.1 2.731 6.616 2.731 10.195-.015 11.256-9.135 20.376-20.39 20.391zm0-38.774c-14.156-.004-23.007 15.318-15.933 27.578s24.768 12.266 31.849.01c1.616-2.797 2.466-5.969 2.466-9.199-.008-10.151-8.232-18.379-18.382-18.394v.005zm-4.015 5.678c3.345.67 4.015 8.026 2.007 10.029-1.317 1.317-4.01 1.758-4.01 2.655s2.693 1.355 4.01 2.656c2.008 2.008 1.338 9.364-2.007 10.033-3.984.834-10.039-3.978-10.039-12.668s6.055-13.501 10.039-12.705zm-8.483 36.017l-.935-.276c-.297-.08-.69-.25-1.126-.409a7.87 7.87 0 0 1-.669-.287l-.722-.334-1.594-.845c-.574-.313-1.11-.653-1.673-1.062l-1.715-1.212-.856-.653-.844-.685-.834-.696-.802-.717-1.519-1.439-1.354-1.413-1.169-1.323-.94-1.157-.691-.924-.579-.807c-.414-.653.034-1.509.806-1.542.325-.013.637.131.836.389l.031.042.531.781c.16.249.383.531.638.876l.871 1.11 1.062 1.275c.367.452.834.898 1.28 1.37l1.44 1.403.813.711.785.68.802.664.808.643 1.594 1.174 1.593 1.014 1.45.802.664.319a6.09 6.09 0 0 0 .589.265l.531.207c.149.065.302.123.457.171l.935.286a.84.84 0 0 1-.478 1.594l-.016.005z"/><path d="M126.621-119.345l.138-.239c.055-.101.117-.199.186-.292l.291-.404a5.38 5.38 0 0 1 .378-.42l.223-.207.116-.112.149-.116.229-.175.117-.09.154-.096a5.82 5.82 0 0 1 .642-.356c.421-.199.863-.349 1.318-.446a4.78 4.78 0 0 1 .642-.096l.579-.032h.494l.377.054.329.047a1.01 1.01 0 0 1-.297 1.992h-.096-.09l-.217-.059-.25-.063-.335-.042c-.132-.009-.266-.009-.398 0-.149-.014-.298-.014-.447 0-.159.011-.317.036-.472.074a3.13 3.13 0 0 0-.483.138 3.74 3.74 0 0 0-.436.175l-.106.048-.128.08-.244.148-.064.037h-.026.032l-.091.075-.18.138a3.8 3.8 0 0 0-.313.281c-.091.085-.155.171-.224.24a2 2 0 0 0-.186.233l-.159.223a.67.67 0 0 1-.935.154c-.295-.194-.39-.584-.217-.892z"/></g><path d="M158.478-63.044c-.406 4.746 4.477 8.152 8.79 6.131a6.19 6.19 0 0 0 3.426-4.31l3.102-17.31" class="H"/><path d="M159.482-62.975v.408.224.207.234c0 .084 0 .186.037.291a4.91 4.91 0 0 0 .431 1.434c.276.596.659 1.137 1.131 1.594a5.23 5.23 0 0 0 1.955 1.174c.391.113.793.182 1.2.207h.196c.057.008.114.008.17 0h.298a2.19 2.19 0 0 0 .313-.027c.11-.008.221-.023.329-.042a6.02 6.02 0 0 0 1.291-.414c.418-.209.808-.468 1.163-.77.359-.312.675-.669.94-1.062a5.34 5.34 0 0 0 .611-1.291 2.68 2.68 0 0 0 .096-.351l.042-.175v-.085-.106l.16-.839.318-1.673.627-3.251 1.131-5.763 1.158-5.614a.67.67 0 0 1 1.092-.391.67.67 0 0 1 .226.63l-.856 5.662-.929 5.799-.531 3.267-.282 1.679-.138.844v.107l.01.148-.058.239c-.032.163-.072.325-.122.483a7.24 7.24 0 0 1-2.124 3.309c-.488.416-1.023.772-1.594 1.063-.577.275-1.185.478-1.811.605-.153.031-.307.054-.462.069a3.26 3.26 0 0 1-.473.043h-.499c-.071.005-.142.005-.213 0h-.196a7.13 7.13 0 0 1-1.731-.335 7.24 7.24 0 0 1-2.757-1.657 7.08 7.08 0 0 1-1.562-2.225 6.84 6.84 0 0 1-.573-2.024c0-.144-.038-.276-.048-.414s0-.271 0-.388v-.34-.223l.037-.409c.071-.77.949-1.173 1.579-.727.28.197.439.523.424.865l-.006.011z" class="G"/><path d="M149.55-62.646c-.395 4.743 4.493 8.134 8.798 6.104a6.18 6.18 0 0 0 3.524-5.079l1.95-17.358" class="H"/><path d="M150.553-62.641v.409.223.202.234c0 .085.038.186.059.286a4.74 4.74 0 0 0 .531 1.398 5.35 5.35 0 0 0 1.221 1.497c.587.499 1.276.862 2.019 1.063a5.39 5.39 0 0 0 1.232.159h.378l.291-.026a2.68 2.68 0 0 0 .309-.048c.111 0 .217-.038.324-.064a5.32 5.32 0 0 0 1.258-.489 5.27 5.27 0 0 0 1.116-.823c.685-.665 1.174-1.507 1.413-2.433.035-.114.06-.231.074-.351l.064-.355.106-.85.213-1.683.408-3.272.76-5.801.786-5.656a.67.67 0 0 1 1.088-.401.67.67 0 0 1 .24.55l-.483 5.688-.531 5.843-.33 3.282-.165 1.689-.084.85c0 .154-.048.324-.075.483a3.01 3.01 0 0 1-.101.489 7.25 7.25 0 0 1-3.468 4.579 7.67 7.67 0 0 1-1.764.711l-.456.096a4.21 4.21 0 0 1-.473.069l-.494.042h-.398c-1.685-.008-3.312-.615-4.589-1.716a6.94 6.94 0 0 1-1.694-2.124c-.331-.618-.566-1.282-.696-1.97 0-.149-.059-.276-.075-.415s0-.266-.032-.388v-.334-.223-.409c0-.773.837-1.256 1.506-.869a1 1 0 0 1 .502.869l.01-.011z" class="G"/><path d="M139.368-62.646l-10.039-11.467c-.899.99-2.274 1.4-3.569 1.062l1.296 11.43c.533 4.734 5.99 7.115 9.823 4.287 1.676-1.236 2.617-3.233 2.504-5.312h-.015z" class="H"/><path d="M125.754-79.037l.792 5.657.759 5.8.41 3.272.212 1.683.106.85a6.21 6.21 0 0 0 .144.743l.085.314.132.329c.037.114.085.225.144.329l.164.314a5.54 5.54 0 0 0 .872 1.11c.66.641 1.48 1.091 2.374 1.307a5.49 5.49 0 0 0 1.296.154h.318.197-.037.037.09l.372-.064h.09.069l.133-.038.26-.074.282-.106a3.61 3.61 0 0 0 .531-.239l.483-.287c.155-.095.303-.212.431-.334a5.44 5.44 0 0 0 1.227-1.498c.247-.438.427-.91.531-1.403l.063-.286v-.26c.012-.138.012-.277 0-.415v-.34-.106a1 1 0 0 1 1.498-.864 1 1 0 0 1 .5.864v.478a4.91 4.91 0 0 1 0 .569c0 .109-.011.232-.033.366 0 .127-.047.26-.074.404a7.03 7.03 0 0 1-.695 1.97 7.19 7.19 0 0 1-1.695 2.125c-.186.165-.398.308-.605.462s-.441.287-.68.414l-.749.34-.398.149-.436.122-.223.053-.117.026h-.09l-.372.064h-.09-.101-.223-.447c-1.934.025-3.797-.727-5.173-2.087a7.74 7.74 0 0 1-1.2-1.567l-.223-.441c-.076-.147-.142-.3-.197-.456l-.175-.468-.138-.531c0-.085-.048-.18-.059-.249l-.031-.213-.032-.213v-.106-.053-.075-.026l-.085-.85-.17-1.688-.324-3.283-.531-5.843-.489-5.688a.67.67 0 0 1 .972-.632.67.67 0 0 1 .356.483l-.038.032z" class="G"/><path d="M137.775-79.51l.498 17.384c.14 4.761 5.381 7.587 9.435 5.085 1.772-1.093 2.875-3.004 2.936-5.085l.499-17.384" class="H"/><path d="M138.438-79.51l.133 2.311.319 6.092.366 8.62v.297.245c.007.179.028.356.064.531a4.94 4.94 0 0 0 .266.94 5.15 5.15 0 0 0 4.833 3.304h.165-.038.043.079.314.16.111l.234-.043c.148 0 .329-.085.494-.122s.324-.122.488-.18c.642-.271 1.221-.673 1.699-1.18a5.26 5.26 0 0 0 1.101-1.725 3.09 3.09 0 0 0 .159-.479c.048-.162.084-.326.111-.493.033-.163.052-.328.059-.495v-.255-.297l.371-8.62.319-6.092.133-2.311a.67.67 0 0 1 1.02-.552.67.67 0 0 1 .318.589v2.316l-.031 6.103-.128 8.625v.298.334a4.86 4.86 0 0 1-.08.691c-.03.232-.08.461-.148.685-.055.23-.126.455-.213.675a7.3 7.3 0 0 1-3.861 4.095l-.691.26-.722.191-.393.069-.197.032h-.153-.314-.079-.319c-3.002-.012-5.682-1.882-6.73-4.695a6.75 6.75 0 0 1-.361-1.397 5.56 5.56 0 0 1-.074-.642v-.643l-.128-8.626-.037-6.103v-2.353a.67.67 0 0 1 1.035-.522.67.67 0 0 1 .298.485l.005.037z" class="G"/><path d="M231.574-103.772l-4.882-1.631-.382-2.39 3.968-2.215-1.365-4.18h-5.19l-1.189-1.705 1.79-4.69-3.326-3.324-4.865 2.39-1.619-.771-.351-5.624-4.18-.941-4.005 4.25-1.45-.085-2.305-4.249-4.945.849-.935 5.8-1.705.94-4.18-2.475-3.84 3.071 1.965 5.204-1.195 1.445-4.945-.34-1.88 4.249 3.67 3.841-.255 1.789-4.52 2.045.765 5.801 12.88-4.01 3.458-.117a7.44 7.44 0 0 1-.16-1.419c0-4.424 3.899-9.343 8.923-9.343s9.269 4.919 9.269 9.343c-.012.375-.055.748-.127 1.116l16.316 3.186.792-5.81z" fill="#fab533"/><path d="M179.469-98.748a1.26 1.26 0 0 1-1.243-1.003c-.181-.874-.281-1.763-.298-2.656.001-1.069.606-2.046 1.562-2.523 1.125-.566 2.298-1.03 3.506-1.386 0-.112.042-.223.069-.34s0-.245 0-.377a23.06 23.06 0 0 1-3.06-2.433 2.9 2.9 0 0 1-.733-2.704 21.9 21.9 0 0 1 1.211-3.032c.499-.914 1.461-1.479 2.502-1.471l3.633.355.042-.064.186-.26c.046-.071.099-.137.16-.196l.048-.069c-.619-1.178-1.163-2.393-1.631-3.638a.87.87 0 0 1-.037-.123c-.252-.963.008-1.988.69-2.714a17.85 17.85 0 0 1 2.358-2.124c.808-.664 1.936-.775 2.858-.282l3.091 2.003a4.27 4.27 0 0 1 .494-.208l.154-.079a17.68 17.68 0 0 1 .638-4.493 2.75 2.75 0 0 1 1.896-2.025l.494-.127a20.31 20.31 0 0 1 2.485-.531 2.52 2.52 0 0 1 2.741 1.285c.628.994 1.207 2.019 1.732 3.071h.7c.636-1.164 1.33-2.293 2.083-3.384a1.07 1.07 0 0 1 .138-.17 3 3 0 0 1 2.704-.855l.408.132a1.45 1.45 0 0 0 .239.086.87.87 0 0 1 .399.079l1.003.314.946.276.165.069a2.74 2.74 0 0 1 1.593 2.374c.113 1.222.142 2.45.085 3.676.028.016.059.028.09.037l.165.069a3.55 3.55 0 0 1 .425.249 34.53 34.53 0 0 1 3.351-1.911 2.59 2.59 0 0 1 2.826.339 2.3 2.3 0 0 1 .457.378 1.28 1.28 0 0 1 .319.249l1.518 1.498c.789.775 1.002 1.963.532 2.964l-1.631 3.298.037.048c.09.099.169.207.234.324l.106.212c1.306-.137 2.618-.199 3.931-.186 1.029.032 1.955.634 2.4 1.562.086.175.132.368.133.563l.26.531c.287.563.496 1.161.622 1.78a2.85 2.85 0 0 1-.834 2.613l-.117.106-2.937 2.188v.213a1.3 1.3 0 0 1 0 .153l.037.357c1.236.477 2.441 1.033 3.606 1.662.894.504 1.442 1.455 1.429 2.48a1.43 1.43 0 0 1 0 .207l-.106.914a9.97 9.97 0 0 1-.138 1.142 1.26 1.26 0 0 1-2.063.713c-.341-.295-.498-.749-.412-1.191a7.92 7.92 0 0 0 .106-.882l.106-.951c-.01-.078-.042-.153-.09-.217-1.29-.689-2.629-1.284-4.005-1.78-.459-.163-.781-.577-.828-1.062l-.133-1.131a1.06 1.06 0 0 1 0-.138v-.048l-.122-.93c-.064-.495.169-.981.594-1.242a33.12 33.12 0 0 0 3.31-2.396c.148-.17.127-.26.111-.329a4.71 4.71 0 0 0-.43-1.185l-.271-.605c-.078-.17-.137-.348-.175-.531a.29.29 0 0 0-.091-.064 25.91 25.91 0 0 0-4.275.271 1.25 1.25 0 0 1-1.1-.345c-.139-.137-.255-.295-.345-.468-.181-.217-.334-.457-.457-.712-.128-.159-.246-.328-.351-.504-.037-.071-.082-.139-.132-.202a1.36 1.36 0 0 1-.191-1.529 37.72 37.72 0 0 0 1.922-3.756l-1.428-1.508c-.148-.1-.284-.214-.409-.34-.118-.07-.225-.156-.319-.255-1.321.621-2.588 1.351-3.787 2.183-.455.325-1.07.31-1.508-.037a1.68 1.68 0 0 1-.298-.181c-.117-.064-.212-.128-.308-.191l-.128-.08a3.9 3.9 0 0 1-.642-.324 1.87 1.87 0 0 0-.255-.133c-.556-.18-.914-.718-.866-1.301a25.27 25.27 0 0 0-.031-4.19c-.015-.086-.065-.161-.139-.207l-.722-.207-1.062-.33a3.24 3.24 0 0 1-.755-.202l-.244-.085c.048 0-.064.074-.164.149a40.05 40.05 0 0 0-2.21 3.686c-.221.405-.644.659-1.105.664h-2.263c-.516.001-.981-.309-1.179-.786a26.12 26.12 0 0 0-1.944-3.575c-.053 0-.095-.037-.148-.037a17.98 17.98 0 0 0-2.237.489l-.504.132s-.064.107-.09.218a15.71 15.71 0 0 0-.563 4.611c.005.541-.337 1.025-.85 1.2a2.19 2.19 0 0 0-.255.143c-.235.152-.486.276-.749.372-.186.071-.363.16-.531.266l-.324.175c-.431.217-.949.17-1.333-.122a33.34 33.34 0 0 0-3.415-2.284h-.048l-.117.09c-.74.558-1.428 1.182-2.056 1.864-.053.084-.074.184-.058.282.505 1.339 1.108 2.639 1.805 3.888a1.26 1.26 0 0 1-.201 1.492c-.048.064-.09.132-.128.202a3.72 3.72 0 0 1-.403.584l-.197.277a1.53 1.53 0 0 0-.217.345c-.197.596-.801.958-1.418.85-1.329-.234-2.656-.345-4.165-.457a.78.78 0 0 0-.175.095c-.397.838-.739 1.7-1.025 2.582.012.079.04.154.08.223a24.99 24.99 0 0 0 3.372 2.602c.462.316.659.899.484 1.429-.054.241-.073.488-.059.734.005.134-.015.27-.058.398a2.73 2.73 0 0 0-.059.738c.006.578-.385 1.085-.945 1.227-1.344.34-2.648.824-3.888 1.445-.105.045-.174.146-.181.26a11.77 11.77 0 0 0 .239 2.125c.144.681-.295 1.348-.977 1.487-.079.024-.161.039-.244.047zm35.852-22.791zm-25.192-2.087zm6.198 21.989c-.698.012-1.274-.544-1.285-1.243a10.21 10.21 0 0 1 8.981-10.256 10.01 10.01 0 0 1 7.516 2.034c2.135 1.663 3.529 4.1 3.883 6.783v.159 1.009a1.26 1.26 0 0 1-1.888 1.09c-.39-.224-.63-.64-.63-1.09v-.929c-.28-2.001-1.33-3.814-2.927-5.051-1.596-1.255-3.634-1.807-5.646-1.53a7.71 7.71 0 0 0-6.756 7.781c-.011.684-.564 1.235-1.248 1.243z" fill="#b03831"/><path d="M204.071-101.43c-14.962.106-30.832 4.021-30.806 11.064l.191 27.056a4.18 4.18 0 0 0 .372 1.737c2.3 5.263 14.872 8.864 30.567 8.753 14.963-.106 30.832-4.021 30.806-11.064l-.191-26.923c-.074-7.043-16.003-10.729-30.939-10.623z" fill="#e5e5e4"/><g class="G"><path d="M204.352-67.463c-15.933.116-28.718-3.31-31.055-8.323a3.75 3.75 0 0 1-.377-1.658l-.106-14.871c-.048-6.704 16.082-10.443 31.283-10.549s31.385 3.399 31.433 10.092l.107 14.734c.047 6.734-16.083 10.468-31.285 10.575zm-.233-32.873c-12.046.085-28.819 3.187-28.788 8.015l.107 14.872c-.004.198.038.394.122.574 1.593 3.426 13.039 7.016 28.771 6.905 12.047-.085 28.82-3.187 28.788-8.015l-.106-14.734c-.021-3.256-11.027-7.744-28.894-7.617z"/><path d="M204.247-82.197c-15.202.106-31.385-3.4-31.433-10.092s16.082-10.442 31.283-10.548 31.385 3.399 31.433 10.091-16.056 10.443-31.283 10.549zm-.128-18.139c-17.873.128-28.809 4.781-28.788 8.015s11.027 7.734 28.894 7.606 28.809-4.754 28.788-8.015-11.027-7.733-28.894-7.606zm.059 48.977c-15.935 0-28.682-3.511-30.992-8.541-.249-.517-.374-1.084-.367-1.657v-17.772l2.517 2.926v14.873a1.28 1.28 0 0 0 .123.567c1.593 3.443 12.986 7.112 28.719 7.112 12.045 0 28.845-2.969 28.845-7.807v-14.623l2.518-2.862v17.474c0 6.708-16.157 10.31-31.363 10.31z"/></g><g transform="matrix(.569325 0 0 .569325 100.344414 -212.269424)"><svg height="4762.205" overflow="visible" viewBox="0 0 1122.52 793.701" width="6735.118" transform="matrix(6 0 0 6 0 .000295)"><path d="M-11.002 55.137c0-.704.83-.953 1.41-.953.497 0 1.16.207 1.492.622l1.41-1.533c-.787-.704-1.823-.994-2.86-.994-1.865 0-3.605 1.036-3.605 3.066 0 3.15 4.392 2.196 4.392 3.936 0 .663-.746.994-1.45.994s-1.367-.33-1.823-.87l-1.41 1.575c.87.83 1.947 1.16 3.15 1.16 1.947 0 3.605-.994 3.605-3.108 0-3.273-4.31-2.155-4.31-3.895m10.94 2.072c0-1.74 1.16-3.025 2.735-3.025.787 0 1.367.3 1.782.787l1.575-1.326c-.787-.994-2.113-1.367-3.15-1.367-2.942 0-5.055 1.906-5.055 4.93s2.113 4.93 5.055 4.93c1.284 0 2.6-.497 3.398-1.616l-1.74-1.284c-.414.622-1.12.994-1.947.994-1.492 0-2.652-1.284-2.652-3.025m15.29.704l3.522-5.386h-2.445l-2.113 3.522-1.99-3.522h-2.57l3.522 5.386v4.02h2.072l.002-4.02zm7.707 3.978h5.884v-1.902h-3.812v-7.46h-2.077l.005 9.362zm10.566 0h5.884v-1.902h-3.815v-7.46H33.5l.003 9.362zm19.39 0l-4.102-9.406h-1.7l-4.06 9.406h2.28l.787-1.99.663-1.74 1.16-2.9 1.16 2.9.704 1.74.83 1.99h2.278z" fill="#372950"/></svg></g><g transform="matrix(1.25 0 0 -1.25 -295.972382 733.458374)"><g clip-path="url(#A)" class="I"><path d="M61.491 609.137c1.824 0 3.552-.432 4.417-1.296.144-1.345-1.057-3.505-1.825-3.505-.912.336-1.776.53-2.832.53-4.368 0-6.529-4.514-6.529-8.978 0-2.784.96-4.465 3.17-4.465 2.351 0 4.751 1.584 6.095 2.784.336-.239.768-1.008.768-1.872 0-.96-.288-1.872-1.152-2.736-1.536-1.536-4.128-2.832-7.873-2.832-4.32 0-7.296 2.448-7.296 8.161 0 7.488 4.944 14.21 13.01 14.21zm14.111-17.473c2.352 0 6.625 4.129 7.825 12 .048.48.096.625.192 1.105a6.019 6.019 0 0 1-1.969.336c-1.776 0-3.6-.528-5.232-2.736-1.68-2.352-2.4-5.28-2.4-7.633 0-2.015.576-3.072 1.536-3.072zm-7.729 2.16c0 2.832.96 7.777 4.561 11.377 3.072 3.168 6.816 3.937 10.225 3.937 2.256 0 5.328-.72 7.248-1.105-.48-2.112-1.632-10.08-2.16-14.688-.24-1.97-.336-4.705-.24-5.713-1.584-.672-4.56-.864-5.377-.864-.43 0-.528 1.968-.383 3.84a51.79 51.79 0 0 0 .191 1.92c-1.872-3.12-5.568-5.76-9.456-5.76-2.784 0-4.609 2.304-4.609 7.008zm33.985 15.313c1.968 0 3.84-.72 4.705-1.632-.048-1.345-1.104-3.6-2.785-2.976-.72.24-1.44.431-2.4.431-1.296 0-2.4-.576-2.4-1.775 0-.912.672-1.585 3.888-3.84 2.305-1.68 3.217-3.169 3.217-5.28 0-3.506-3.313-7.298-9.073-7.298-2.352 0-4.417.912-5.09 1.872-.863 1.44-.191 4.272.77 3.793 1.248-.624 3.312-1.297 4.992-1.297 1.584 0 2.592.721 2.592 1.681 0 .815-.72 1.536-3.648 3.6-2.45 1.824-3.217 3.504-3.217 5.424 0 3.984 3.409 7.297 8.4 7.297zm16.559 0c1.969 0 3.841-.72 4.705-1.632-.048-1.345-1.103-3.6-2.784-2.976-.72.24-1.441.431-2.4.431-1.296 0-2.4-.576-2.4-1.775 0-.912.672-1.585 3.888-3.84 2.304-1.68 3.216-3.169 3.216-5.28 0-3.506-3.313-7.298-9.073-7.298-2.352 0-4.416.912-5.088 1.872-.864 1.44-.192 4.272.768 3.793 1.248-.624 3.312-1.297 4.992-1.297 1.584 0 2.592.721 2.592 1.681 0 .815-.72 1.536-3.648 3.6-2.448 1.824-3.216 3.504-3.216 5.424 0 3.984 3.408 7.297 8.401 7.297zm15.119-17.473c2.353 0 6.625 4.129 7.825 12 .048.48.097.625.193 1.105a6.024 6.024 0 0 1-1.969.336c-1.776 0-3.6-.528-5.233-2.736-1.679-2.352-2.4-5.28-2.4-7.633 0-2.015.576-3.072 1.537-3.072zm-7.729 2.16c0 2.832.961 7.777 4.561 11.377 3.072 3.168 6.816 3.937 10.225 3.937 2.256 0 5.33-.72 7.25-1.105-.48-2.112-1.633-10.08-2.16-14.688-.242-1.97-.337-4.705-.242-5.713-1.584-.672-4.559-.864-5.376-.864-.43 0-.528 1.968-.384 3.84.048.624.144 1.536.192 1.92-1.872-3.12-5.568-5.76-9.456-5.76-2.785 0-4.61 2.304-4.61 7.008zm32.881 9.073c2.209 3.552 5.088 6.24 9.121 6.24 3.408 0 4.512-3.168 3.889-7.68l-1.297-7.921c-.336-2.353-.576-4.464-.527-5.905-1.248-.624-4.897-.864-5.713-.864-.336 0-.385 2.641.048 5.425l1.584 8.881c.241 1.391.192 3.072-1.152 3.072-1.777 0-6-2.833-8.113-14.449-.145-.96-.528-1.536-1.057-1.872-.719-.433-2.256-.817-5.375-.865.576 2.928 1.488 8.929 2.16 13.345.623 4.032.864 6.625.719 7.633.817.288 5.09 1.2 5.568 1.2.53 0 .625-1.488.145-5.089l-.145-1.151zm24.385-11.186c2.11 0 6.385 3.937 7.584 10.897.049.384.193 1.104.289 1.537-.625.576-1.441.96-2.736.96-4.85 0-7.01-5.809-7.01-9.986 0-2.256.769-3.408 1.824-3.408zm-3.168-4.944c-3.072 0-4.992 2.736-4.992 7.44 0 7.777 4.847 14.93 13.008 14.93 1.44 0 2.736-.384 3.552-.864.432 2.208 1.44 9.025 1.489 11.041 1.343.24 4.224.671 5.519.671.53 0 .674-.527.48-1.727l-3.6-24.099c-.288-2.592-.335-5.136-.288-6.576-1.535-.672-4.656-.816-5.471-.816-.338 0-.53 2.208-.433 4.176l.144 1.68c-2.4-3.936-5.713-5.856-9.361-5.856zm28.127 15.457c2.545 5.665 5.568 6.913 7.537 6.913.625 0 1.584-.384 2.016-.864.193-1.584-1.055-4.752-2.16-5.952-.577.288-1.295.576-2.112.576-1.633 0-4.85-2.545-6.865-13.489-.145-.913-.432-1.297-.96-1.537-.815-.48-4.032-.864-5.567-.912.718 3.937 1.966 11.953 2.447 16.658.144 1.2.19 3.408.096 4.272.912.432 4.513 1.248 5.328 1.248.433 0 .769-2.64.095-6.913zm16.943-10.56c2.354 0 6.625 4.129 7.826 12 .047.48.096.625.192 1.105a6.019 6.019 0 0 1-1.969.336c-1.776 0-3.6-.528-5.233-2.736-1.679-2.352-2.4-5.28-2.4-7.633 0-2.015.576-3.072 1.537-3.072zm-7.729 2.16c0 2.832.961 7.777 4.561 11.377 3.072 3.168 6.816 3.937 10.225 3.937 2.256 0 5.328-.72 7.25-1.105-.48-2.112-1.633-10.08-2.16-14.688-.24-1.97-.338-4.705-.24-5.713-1.585-.672-4.56-.864-5.378-.864-.43 0-.527 1.968-.384 3.84a49.23 49.23 0 0 0 .193 1.92c-1.873-3.12-5.568-5.76-9.457-5.76-2.785 0-4.61 2.304-4.61 7.008z"/></g><g clip-path="url(#B)"><path d="M210.878 690.483c1.584-18.452-27.455-36.014-64.859-39.223s-69.01 9.151-70.592 27.602 27.455 36.016 64.86 39.225 69.01-9.149 70.591-27.604" fill="#bbe6fb"/></g><g clip-path="url(#C)"><g clip-path="url(#D)" opacity=".35"><path d="M141.384 715.923c-14.268.232-30.964-5.433-43.387-10.738a35.89 35.89 0 0 1-1.989-11.797c0-21.888 19.764-39.634 44.145-39.634s44.145 17.746 44.145 39.634c0 6.927-1.984 13.435-5.463 19.101-9.939 1.545-23.609 3.21-37.45 3.434" fill="#fff"/></g></g><g clip-path="url(#E)"><path d="M140.153 715.928c-7.9.482-21.514-3.64-32.867-7.75a33.739 33.739 0 01-2.683-13.201c0-19.178 17.388-34.725 35.782-34.725 18.273 0 34.44 15.572 35.782 34.725.436 6.237-1.711 12.114-4.692 17.18-11.77 2.074-24.261 3.34-31.322 3.77" fill="#fff"/></g><g clip-path="url(#F)" class="I"><path d="M119.882 697.495c.969 2.146 2.437 3.197 3.859 4.996-.158.426-.504 1.819-.504 2.302a3.907 3.907 0 0 0 3.906 3.906 3.89 3.89 0 0 0 1.44-.278c6.465 4.927 14.976 7.075 23.529 5.163a29.763 29.763 0 0 0 2.299-.623c-8.453 1.172-17.981-1.822-24.462-7.053.198-.467.747-1.802.747-2.34 0-2.156-1.396-2.681-3.553-2.681-.49 0-.958.094-1.391.259-1.464-1.966-3.258-5.711-4.136-8.052 3.584-3.206 6.822-4.368 11.042-5.945-.011.2.145.387.145.592 0 6.503 5.725 11.788 12.229 11.788 5.828 0 10.654-4.238 11.596-9.798 2.908 1.85 5.72 3.268 7.863 6.01-.5.61-1.04 2.337-1.04 3.187a3.545 3.545 0 0 0 3.546 3.544c.277 0 .543-.04.802-.1a31.013 31.013 0 0 1 2.434 7.05c-10.17 7.529-29.847 6.502-29.847 6.502s-15.658.817-26.258-4.35c.707-5.11 2.746-9.97 5.754-14.08m48.608 2.934a6.551 6.551 0 0 0 1.42-1.77c.952-1.71-.956-3.276-2.913-3.276a3.5 3.5 0 0 0-.582.06c-2.205-3.447-6.067-7.866-9.498-10.09 5.26-.862 10.222-2.969 14.17-6.225 2.875 5.151 5.08 12.59 5.08 18.907 0 4.81-2.123 8.334-5.328 10.92-.168-2.576-1.543-6.179-2.348-8.526m-42.707-32.625c1.753 4.841 6.065 8.592 10.144 11.892-.597.817-1.492 2.84-1.865 3.798a28.545 28.545 0 0 0-12.79 8.094c-.026-.109-.057-.215-.083-.324a25.873 25.873 0 0 1-.44-8.584 5.13 5.13 0 0 0 4.184-5.042c0-1.489-1.305-3.647-2.318-4.586 1.101-2.376 1.852-3.522 3.168-5.248m-.308-4.063c-2.091 2.078-3.537 6.225-4.894 8.83a5.13 5.13 0 0 0-.78-.067c-2.836 0-5.807 2.38-5.135 5.134.372 1.524 1.424 2.521 3.137 3.353-.39 3.157-.496 7.695.237 10.977.21.94.655 1.38.95 2.273-3.13 4.58-5.151 10.59-5.151 16.552 0 .218.01.433.016.65-5.288-2.653-9.253-6.83-9.253-13.408 0-14.548 8.379-28.819 20.846-34.413l.027.118m30.655 20.112c-1.61-4.582-5.967-7.873-11.1-7.873-2.746 0-5.265.947-7.267 2.521-4.127-3.214-7.87-8.86-9.774-13.758.854-.919 1.45-1.675 2.407-2.49 2.887-.752 6.863 0 9.988 0 12.57 0 23.703 5.592 30.086 15.398-4.244 2.94-9.25 5.736-14.34 6.202"/></g><g clip-path="url(#G)" fill="#1287b1"><path d="M119.56 695.794a28.451 28.451 0 0 0 3.605 5.931 3.91 3.91 0 0 0-.25 1.367 3.907 3.907 0 0 0 3.906 3.906 3.89 3.89 0 0 0 1.44-.278c6.465 4.927 14.976 7.075 23.529 5.163a29.763 29.763 0 0 0 2.299-.623c-8.453 1.172-17.187-1.419-23.668-6.65a3.906 3.906 0 0 0-3.6-5.423c-.49 0-.958.093-1.391.258a26.294 26.294 0 0 1-3.54-6.48c3.079-3.317 6.857-5.94 11.076-7.517-.01.201-.031.4-.031.605 0 6.503 5.27 11.775 11.775 11.775 5.828 0 10.654-4.238 11.596-9.798 2.908 1.85 5.492 4.226 7.634 6.968a3.5 3.5 0 0 0-.81 2.23 3.545 3.545 0 0 0 3.545 3.543c.277 0 .543-.04.802-.1a31.013 31.013 0 0 1 2.434 7.05c-10.17 7.53-29.847 6.502-29.847 6.502s-15.658.817-26.258-4.349c.707-5.11 2.746-9.97 5.754-14.08m49.48 4.054a3.518 3.518 0 0 0 1.18-2.62 3.546 3.546 0 0 0-3.545-3.546 3.5 3.5 0 0 0-.582.06 28.689 28.689 0 0 0-8.56-8.609 28.662 28.662 0 0 0 13.794-6.2 35.595 35.595 0 0 1 4.518 17.401c0 4.81-2.123 8.334-5.328 10.92a28.518 28.518 0 0 0-1.477-7.406m-42.715-33.208a28.567 28.567 0 0 0 8.878 12.484 11.755 11.755 0 0 0-1.462 2.67 28.54 28.54 0 0 0-12.79 8.093c-.026-.109-.058-.215-.083-.324a25.82 25.82 0 0 1-.44-8.584 5.131 5.131 0 0 0 4.184-5.042 5.124 5.124 0 0 0-1.652-3.767 30.815 30.815 0 0 1 3.365-5.53m-.863-2.842a28.624 28.624 0 0 0-5.202 7.07 5.152 5.152 0 0 0-.78-.065 5.13 5.13 0 0 0-2.238 9.75 28.47 28.47 0 0 0 1.238 12.463 28.394 28.394 0 0 0-4.962 16.076l.015.648c-5.288-2.65-9.253-6.83-9.253-13.406 0-14.549 8.688-27.06 21.155-32.654l.027.118m30.348 18.352c-1.612-4.581-5.968-7.872-11.1-7.872a11.72 11.72 0 0 0-7.268 2.52c-4.127-3.213-7.242-7.594-9.144-12.493a31.844 31.844 0 0 1 2.723-2.6 35.835 35.835 0 0 1 9.042-1.154c12.57 0 23.621 6.49 30.004 16.295-4.244 2.94-9.168 4.839-14.258 5.305"/></g><g clip-path="url(#H)"><g clip-path="url(#I)"><path d="M156.222 685.187l10.88 2.595-10.92.557 8.886 6.792-10.084-3.615 6.853 9.497-9.465-6.291 3.31 11.117-6.5-9.163-.149 11.579-4.277-10.314-3.566 10.437.193-12.295-6.163 11.021 3.335-11.702-9.997 7.27 7.831-9.84-12.41 4.564 9.794-7.247-12.56-.386 12.842-3.314-12.853-2.779 12.687-.92-10.699-6.851 11.017 3.994-7.644-9.681 9.66 7.79-3.479-12.991 7.457 10.572-1.045-12.486 4.233 11.319 3.603-11.897.876 11.933 5.348-10.181-3.16 11.645 9.793-7.586-6.322 9.672 10.744-4.186-8.215 8.073 11.016-.866z" fill="#fff"/></g></g><g clip-path="url(#J)" class="I"><g clip-path="url(#K)" opacity=".35"><path d="M40.403 664.37c33.74 33.74 60.687 44.155 85.143 48.91 3.236.63 3.848 7.7 3.848 7.7s.453-5.208 2.718-5.887 5.207 8.152 5.207 8.152-2.717-7.926 0-8.379 7.7 7.7 7.7 7.7-2.038-7.02-.679-7.473 8.15 10.19 8.15 10.19-4.076-7.02-.226-7.7 9.467 4.791 9.467 4.791-4.416-5.005-2.448-5.696c8.38-2.945 15.16 7.945 15.16 7.945s-1.572-4.775-5.648-9.983c8.83-2.264 15.39 11.04 15.39 11.04l-6.56-13.304c3.397-1.813 16.985 13.812 16.985 13.812s-7.02-12.228-11.096-14.718c2.264-1.812 10.416 5.434 10.416 5.434s-6.567-8.15-4.076-8.604c3.623-2.944 16.982 15.171 16.982 15.171s-5.207-10.642-12.906-19.02c6.435-3.22 22.418 17.435 22.418 17.435s-.453-6.567-12.002-16.983c8.605 1.132 19.701 17.436 19.701 17.436s-4.076-12.228-13.814-20.832c8.45.88 21.964 21.738 21.964 21.738s-5.207-14.492-15.849-22.87c11.775-2.605 28.758 14.944 28.758 14.944s-6.68-12.455-15.399-17.549c9.738-3.736 23.098 11.662 23.098 11.662s-13.36-20.607-34.645-19.7c-6.984.296-28.109 21.187-73.368 19.473-59.78-2.265-72.46-27.626-104.389-44.835"/></g><path d="M41.786 666.933c33.74 33.739 60.686 44.154 85.142 48.91 3.237.629 3.85 7.699 3.85 7.699s.451-5.21 2.717-5.887 5.207 8.15 5.207 8.15-2.717-7.925 0-8.377 7.7 7.699 7.7 7.699-2.038-7.02-.68-7.472 8.151 10.19 8.151 10.19-4.076-7.02-.226-7.7 9.467 4.79 9.467 4.79-4.416-5.004-2.448-5.695c8.38-2.944 15.157 7.945 15.157 7.945s-1.57-4.775-5.645-9.983c8.83-2.265 15.39 11.04 15.39 11.04l-6.56-13.305c3.397-1.811 16.983 13.812 16.983 13.812s-7.018-12.226-11.094-14.717c2.264-1.812 10.416 5.434 10.416 5.434s-6.567-8.152-4.076-8.604c3.623-2.945 16.982 15.17 16.982 15.17s-5.209-10.642-12.906-19.02c6.435-3.22 22.418 17.436 22.418 17.436s-.453-6.568-12.002-16.984c8.605 1.133 19.701 17.437 19.701 17.437s-4.076-12.228-13.814-20.833c8.45.879 21.964 21.738 21.964 21.738s-5.207-14.492-15.849-22.87c11.775-2.604 28.758 14.944 28.758 14.944s-6.68-12.453-15.399-17.548c9.738-3.736 23.098 11.662 23.098 11.662s-13.36-20.607-34.647-19.701c-6.982.298-28.107 21.189-73.367 19.474-59.779-2.264-72.46-27.625-104.388-44.834"/></g><g clip-path="url(#L)" class="I"><g clip-path="url(#M)" opacity=".35"><path d="M39.52 660.68c17.831-8.945 34.136 1.358 54.685-4.433 15.624-4.404 34.646-9.833 60.459-6.096s47.893 14.944 58.424 34.985c3.283 8.943 16.642-2.039 16.642-2.039s-9.736 4.076-9.51 2.151 14.606-8.604 14.606-8.604-13.021 4.076-12.228 1.02 16.301-15.286 16.301-15.286-17.548 13.36-19.019 11.55 7.472-9.173 7.472-9.173-14.832 9.172-20.04 6.467c-3.747-1.943 15.398-14.506 15.398-14.506s-12.455 9.512-15.399 7.021 14.04-22.87 14.04-22.87-19.249 20.832-21.172 19.813 5.32-10.983 5.32-10.983-9.51 10.417-12.113 8.605 13.586-28.87 13.586-28.87-17.549 27.737-24.795 23.097c11.38-24.966 7.134-28.533 7.134-28.533s-1.452 25.47-15.625 24.796c-7.133-.34 3.396-19.02 3.396-19.02s-9.691 17.061-16.145 16.721c11.894-22.51 7.654-31.667 7.654-31.667s1.967 19.226-14.166 29.925c6.113-5.433-3.836-29.925-3.836-29.925s8.752 36.091-6.455 29.21c-2.403-1.085-.17-18.002-.17-18.002s-3.057 19.362-7.64 18.342c-2.674-.593-16.985-26.833-16.985-26.833s11.72 28.362 8.153 27.173c-2.598-.867-7.473-12.568-7.473-12.568s2.377 11.55 0 12.228-15.625-12.228-15.625-12.228 9.851 11.55 8.152 13.927c-2.574 3.603-5.59 3.772-9.17 2.377-5.21-2.03-12.228-11.548-12.228-11.548s6.996 9.637 5.773 13.247c-1.963 5.8-22.077-11.209-22.077-11.209s11.888 11.21 9.171 13.587-17.47 1.642-22.078 1.655c-13.586.042-18.294 3.23-22.418 6.496"/></g><path d="M38.84 662.718c17.833-8.945 34.137 1.358 54.686-4.434 15.623-4.402 34.646-9.832 60.46-6.095s47.89 14.945 58.422 34.984c3.283 8.944 16.642-2.037 16.642-2.037s-9.736 4.075-9.51 2.15 14.606-8.604 14.606-8.604-13.021 4.075-12.228 1.018 16.304-15.284 16.304-15.284-17.55 13.361-19.021 11.548 7.473-9.17 7.473-9.17-14.833 9.17-20.041 6.467c-3.747-1.944 15.398-14.506 15.398-14.506s-12.455 9.511-15.398 7.02 14.04-22.87 14.04-22.87-19.25 20.832-21.173 19.813 5.322-10.982 5.322-10.982-9.512 10.416-12.115 8.604 13.586-28.87 13.586-28.87-17.55 27.738-24.795 23.096c11.379-24.965 7.133-28.532 7.133-28.532s-1.452 25.47-15.625 24.795c-7.133-.34 3.396-19.02 3.396-19.02s-9.691 17.063-16.144 16.723c11.896-22.512 7.654-31.668 7.654-31.668s1.967 19.227-14.166 29.926c6.113-5.434-3.836-29.926-3.836-29.926s8.754 36.091-6.453 29.21c-2.403-1.086-.17-18.002-.17-18.002s-3.06 19.361-7.642 18.342c-2.674-.593-16.985-26.833-16.985-26.833s11.719 28.362 8.153 27.172c-2.598-.865-7.473-12.566-7.473-12.566s2.378 11.548 0 12.227-15.624-12.227-15.624-12.227 9.85 11.548 8.15 13.926c-2.573 3.603-5.59 3.771-9.17 2.376-5.21-2.029-12.227-11.547-12.227-11.547s6.996 9.638 5.774 13.247c-1.964 5.8-22.077-11.209-22.077-11.209s11.888 11.21 9.17 13.586-17.471 1.642-22.078 1.656c-13.586.043-18.293 3.23-22.417 6.496"/></g></g></svg>