<?xml version="1.0" encoding="utf-8"?>
<svg viewBox="-247.422 -177.478 528.446 177.478" xmlns="http://www.w3.org/2000/svg">
  <defs>
    <clipPath id="a">
      <path d="M0 792h612V0H0z"/>
    </clipPath>
    <clipPath id="b">
      <path d="M0 792h612V0H0z"/>
    </clipPath>
    <clipPath id="c">
      <path d="M0 792h612V0H0z"/>
    </clipPath>
    <clipPath id="d">
      <path d="M96.008 715.93h88.29v-62.176h-88.29z"/>
    </clipPath>
    <clipPath id="e">
      <path d="M0 792h612V0H0z"/>
    </clipPath>
    <clipPath id="f">
      <path d="M0 792h612V0H0z"/>
    </clipPath>
    <clipPath id="g">
      <path d="M0 792h612V0H0z"/>
    </clipPath>
    <clipPath id="h">
      <path d="M0 792h612V0H0z"/>
    </clipPath>
    <clipPath id="i">
      <path d="M121.202 708.378h45.899v-45.859h-45.899z"/>
    </clipPath>
    <clipPath id="j">
      <path d="M0 792h612V0H0z"/>
    </clipPath>
    <clipPath id="k">
      <path d="M40.403 726.188h212.402V664.37H40.403z"/>
    </clipPath>
    <clipPath id="l">
      <path d="M0 792h612V0H0z"/>
    </clipPath>
    <clipPath id="m">
      <path d="M39.52 688.644H238.9v-73.818H39.52z"/>
    </clipPath>
    <style>.cls-1{fill:#b03831;}.cls-2{fill:#57d1e5;}.cls-3{fill:#3b2d55;}.cls-4{fill:#fff;}.cls-5{fill:#fab533;}.cls-6{fill:#e5e5e4;}</style>
  </defs>
  <path class="cls-1" d="M 166.509 -56.841 C 165.976 -57.48 166.024 -58.421 166.62 -59.002 C 167.26 -59.536 168.202 -59.487 168.783 -58.891 C 169.319 -58.251 169.27 -57.305 168.671 -56.724 C 168.371 -56.51 168.014 -56.392 167.646 -56.384 C 167.221 -56.379 166.812 -56.543 166.509 -56.841 Z M 245.527 -59.916 C 244.858 -60.433 244.709 -61.381 245.187 -62.078 C 245.703 -62.746 246.652 -62.895 247.348 -62.418 C 248.017 -61.901 248.166 -60.953 247.688 -60.256 C 247.362 -59.912 246.914 -59.708 246.44 -59.688 C 246.117 -59.606 245.774 -59.692 245.527 -59.916 Z M 161.495 -63.575 C 161.059 -64.305 161.258 -65.247 161.952 -65.738 C 162.678 -66.19 163.633 -65.989 164.113 -65.281 C 164.543 -64.551 164.347 -63.616 163.662 -63.119 C 163.415 -62.989 163.144 -62.912 162.865 -62.891 C 162.317 -62.849 161.791 -63.112 161.495 -63.575 Z M 250.195 -66.762 C 249.443 -67.142 249.137 -68.057 249.51 -68.812 C 249.89 -69.566 250.806 -69.869 251.56 -69.493 C 252.313 -69.113 252.619 -68.198 252.246 -67.442 C 252.002 -66.917 251.458 -66.598 250.881 -66.646 C 250.647 -66.571 250.391 -66.614 250.195 -66.762 Z M 157.511 -71.086 C 157.159 -71.872 157.518 -72.794 158.308 -73.136 C 159.094 -73.491 160.019 -73.132 160.358 -72.339 C 160.711 -71.554 160.352 -70.632 159.562 -70.289 C 159.384 -70.208 159.189 -70.17 158.993 -70.177 C 158.362 -70.139 157.772 -70.494 157.511 -71.07 L 157.511 -71.086 Z M 253.61 -74.161 C 252.807 -74.432 252.357 -75.284 252.585 -76.1 C 252.833 -76.919 253.736 -77.341 254.524 -77.008 C 255.324 -76.737 255.774 -75.889 255.549 -75.075 C 255.347 -74.435 254.737 -74.013 254.067 -74.049 C 253.955 -74.034 253.839 -74.145 253.61 -74.145 L 253.61 -74.161 Z M 154.893 -79.058 C 154.711 -79.874 155.217 -80.686 156.03 -80.88 C 156.846 -81.063 157.657 -80.557 157.851 -79.743 C 158.034 -78.928 157.528 -78.116 156.715 -77.921 L 156.375 -77.921 C 155.678 -77.896 155.059 -78.364 154.893 -79.043 L 154.893 -79.058 Z M 255.778 -82.017 C 254.967 -82.155 254.412 -82.912 254.524 -83.727 C 254.663 -84.535 255.416 -85.089 256.229 -84.981 C 257.038 -84.839 257.592 -84.084 257.482 -83.27 C 257.375 -82.538 256.74 -82.001 256.001 -82.017 L 255.778 -82.017 Z M 153.528 -87.354 C 153.438 -88.18 154.063 -88.91 154.893 -88.948 C 155.719 -89.038 156.448 -88.413 156.486 -87.583 C 156.576 -86.758 155.951 -86.028 155.121 -85.99 L 155.004 -85.99 C 154.217 -85.951 153.551 -86.567 153.528 -87.354 Z M 255.204 -91.683 L 255.204 -91.907 C 255.218 -92.719 255.873 -93.374 256.686 -93.389 C 257.505 -93.346 258.177 -92.722 258.279 -91.907 L 258.279 -91.795 L 258.279 -91.683 C 258.265 -90.871 257.61 -90.216 256.797 -90.201 C 255.947 -90.168 255.233 -90.834 255.204 -91.683 Z M 255.204 -91.907 Z M 154.893 -94.185 C 154.081 -94.258 153.476 -94.965 153.528 -95.779 C 153.601 -96.591 154.307 -97.198 155.121 -97.149 C 155.932 -97.073 156.536 -96.368 156.486 -95.555 C 156.425 -94.783 155.779 -94.188 155.004 -94.19 L 154.893 -94.19 L 154.893 -94.185 Z M 254.529 -99.879 C 254.417 -100.694 254.972 -101.451 255.783 -101.589 C 256.596 -101.698 257.349 -101.144 257.488 -100.336 C 257.594 -99.522 257.038 -98.769 256.229 -98.631 L 256.001 -98.631 C 255.251 -98.576 254.597 -99.131 254.529 -99.879 Z M 155.924 -102.269 C 155.11 -102.463 154.604 -103.275 154.787 -104.091 C 154.981 -104.904 155.792 -105.412 156.608 -105.233 C 157.421 -105.038 157.928 -104.227 157.745 -103.411 C 157.588 -102.725 156.967 -102.246 156.263 -102.269 L 155.924 -102.269 Z M 252.591 -107.506 C 252.316 -108.293 252.722 -109.155 253.504 -109.445 C 254.29 -109.719 255.151 -109.312 255.437 -108.531 C 255.715 -107.747 255.311 -106.885 254.529 -106.598 C 254.396 -106.506 254.234 -106.464 254.072 -106.481 C 253.415 -106.491 252.828 -106.895 252.585 -107.506 L 252.591 -107.506 Z M 158.314 -110.125 C 157.523 -110.466 157.165 -111.389 157.517 -112.175 C 157.856 -112.968 158.781 -113.327 159.567 -112.972 C 160.358 -112.629 160.716 -111.707 160.364 -110.921 C 160.063 -110.38 159.501 -110.035 158.882 -110.013 C 158.688 -110.039 158.497 -110.077 158.308 -110.125 L 158.314 -110.125 Z M 249.404 -114.793 C 249.012 -115.548 249.322 -116.477 250.089 -116.844 C 250.842 -117.24 251.773 -116.931 252.139 -116.163 C 252.532 -115.41 252.221 -114.48 251.454 -114.114 C 251.246 -113.986 251.012 -113.908 250.769 -113.885 C 250.214 -114.005 249.725 -114.329 249.399 -114.793 L 249.404 -114.793 Z M 161.845 -117.528 C 161.138 -118.009 160.936 -118.964 161.389 -119.69 C 161.87 -120.399 162.824 -120.601 163.551 -120.147 C 164.259 -119.666 164.46 -118.712 164.008 -117.986 C 163.742 -117.549 163.264 -117.288 162.754 -117.3 C 162.436 -117.307 162.124 -117.385 161.84 -117.528 L 161.845 -117.528 Z M 245.192 -121.512 C 244.714 -122.209 244.864 -123.158 245.532 -123.674 C 246.228 -124.151 247.177 -124.002 247.693 -123.334 C 248.171 -122.637 248.022 -121.689 247.354 -121.172 C 247.107 -120.945 246.781 -120.823 246.445 -120.833 C 245.972 -120.941 245.537 -121.176 245.187 -121.512 L 245.192 -121.512 Z M 166.515 -124.248 C 165.854 -124.797 165.8 -125.792 166.398 -126.409 C 166.949 -127.072 167.948 -127.123 168.564 -126.521 C 169.22 -125.968 169.271 -124.976 168.676 -124.359 C 168.392 -124.021 167.981 -123.814 167.539 -123.79 C 167.176 -123.892 166.828 -124.046 166.509 -124.248 L 166.515 -124.248 Z M 239.811 -127.434 C 239.188 -128.02 239.188 -129.011 239.811 -129.596 C 240.397 -130.224 241.392 -130.224 241.979 -129.596 C 242.603 -129.011 242.603 -128.02 241.979 -127.434 C 241.682 -127.123 241.266 -126.957 240.836 -126.978 C 240.484 -127.086 240.146 -127.239 239.833 -127.434 L 239.811 -127.434 Z M 172.293 -130.164 C 171.729 -130.817 171.833 -131.811 172.522 -132.332 C 173.173 -132.892 174.163 -132.788 174.683 -132.103 C 175.248 -131.452 175.143 -130.46 174.455 -129.942 C 174.209 -129.712 173.883 -129.589 173.546 -129.596 C 173.059 -129.525 172.576 -129.748 172.314 -130.164 L 172.293 -130.164 Z M 233.666 -132.443 C 232.944 -132.926 232.785 -133.921 233.321 -134.605 C 233.806 -135.328 234.802 -135.486 235.488 -134.95 C 236.206 -134.462 236.362 -133.468 235.828 -132.783 C 235.54 -132.372 235.076 -132.119 234.574 -132.103 C 234.256 -132.215 234.027 -132.332 233.688 -132.443 L 233.666 -132.443 Z M 178.917 -134.95 C 178.443 -135.666 178.714 -136.634 179.49 -137 C 180.204 -137.473 181.171 -137.202 181.535 -136.427 C 182.009 -135.714 181.741 -134.747 180.966 -134.381 C 180.725 -134.238 180.451 -134.159 180.17 -134.153 C 179.659 -134.232 179.205 -134.521 178.917 -134.95 Z M 226.852 -136.427 C 226.049 -136.755 225.727 -137.721 226.172 -138.466 C 226.498 -139.278 227.474 -139.604 228.222 -139.151 C 229.032 -138.823 229.355 -137.848 228.902 -137.101 C 228.672 -136.55 228.133 -136.192 227.537 -136.193 C 227.197 -136.315 226.969 -136.315 226.852 -136.427 Z M 186.203 -138.705 C 185.874 -139.494 186.299 -140.395 187.118 -140.644 C 187.905 -140.973 188.804 -140.548 189.05 -139.73 C 189.383 -138.942 188.957 -138.04 188.137 -137.797 C 187.963 -137.703 187.765 -137.663 187.569 -137.68 C 186.972 -137.774 186.46 -138.158 186.203 -138.705 Z M 219.341 -139.273 C 218.517 -139.519 218.054 -140.393 218.317 -141.212 C 218.559 -142.036 219.432 -142.499 220.249 -142.237 C 221.037 -141.947 221.478 -141.111 221.274 -140.299 C 221.078 -139.639 220.481 -139.181 219.793 -139.162 C 219.634 -139.145 219.475 -139.185 219.341 -139.273 Z M 193.947 -141.324 C 193.819 -142.129 194.304 -142.907 195.084 -143.145 C 195.9 -143.328 196.712 -142.822 196.906 -142.009 C 197.089 -141.193 196.583 -140.381 195.769 -140.187 L 195.429 -140.187 C 194.7 -140.067 194.02 -140.588 193.947 -141.324 Z M 211.598 -140.755 C 210.761 -140.874 210.162 -141.624 210.232 -142.466 C 210.35 -143.3 211.098 -143.898 211.937 -143.831 C 212.774 -143.713 213.373 -142.962 213.302 -142.12 C 213.188 -141.33 212.507 -140.747 211.709 -140.755 L 211.598 -140.755 Z M 202.037 -142.577 C 202.001 -143.428 202.667 -144.145 203.518 -144.171 C 204.368 -144.219 205.094 -143.565 205.133 -142.715 C 205.169 -141.864 204.503 -141.148 203.652 -141.122 L 203.54 -141.122 C 202.712 -141.082 202.021 -141.748 202.031 -142.577 L 202.037 -142.577 Z" style=""/>
  <path class="cls-2" d="M 164.448 -63.305 C 163.733 -58.595 168.384 -54.878 172.82 -56.613 C 174.715 -57.355 176.125 -58.981 176.59 -60.963 C 187.84 -113.747 187.914 -111.793 187.914 -124.981 C 187.914 -147.713 169.855 -163.754 144.456 -163.754 C 119.057 -163.754 100.998 -147.708 100.998 -124.981 C 100.998 -114.097 112.322 -60.963 112.322 -60.963 C 113.352 -56.312 119.03 -54.519 122.543 -57.736 C 124.084 -59.147 124.809 -61.242 124.47 -63.305" style=""/>
  <path class="cls-3" d="M 118.361 -55.114 C 114.998 -55.126 112.087 -57.459 111.345 -60.739 C 110.883 -62.928 100 -114.114 100 -124.981 C 100 -136.256 104.451 -146.433 112.535 -153.662 C 120.619 -160.891 131.916 -164.784 144.456 -164.784 C 156.996 -164.784 168.357 -160.832 176.383 -153.662 C 184.409 -146.492 188.917 -136.278 188.917 -124.981 C 188.917 -113.683 188.785 -113.03 181.886 -80.896 C 180.669 -75.24 179.23 -68.605 177.573 -60.755 C 176.74 -57.034 173.152 -54.606 169.388 -55.216 C 165.47 -55.861 162.816 -59.556 163.455 -63.475 C 163.592 -64.235 164.5 -64.563 165.091 -64.064 C 165.356 -63.84 165.487 -63.495 165.436 -63.151 C 164.777 -59.215 168.625 -56.042 172.363 -57.439 C 174.013 -58.055 175.236 -59.466 175.612 -61.185 C 177.286 -69.025 178.709 -75.659 179.925 -81.316 C 186.915 -113.864 186.915 -113.864 186.915 -124.986 C 186.915 -135.683 182.698 -145.329 175.045 -152.148 C 167.391 -158.968 156.508 -162.771 144.456 -162.771 C 132.404 -162.771 121.548 -159 113.868 -152.148 C 106.187 -145.296 102.002 -135.683 102.002 -124.986 C 102.002 -114.289 113.193 -61.701 113.305 -61.17 C 114.125 -57.264 118.865 -55.71 121.837 -58.373 C 123.175 -59.571 123.797 -61.377 123.481 -63.145 C 123.356 -63.908 124.104 -64.519 124.827 -64.246 C 125.162 -64.12 125.405 -63.823 125.463 -63.47 C 126.176 -59.093 122.8 -55.119 118.367 -55.114 L 118.361 -55.114 Z" style=""/>
  <path class="cls-2" d="M 115.116 -78.533 L 118.202 -61.223 C 119.198 -56.565 124.863 -54.731 128.399 -57.923 C 129.836 -59.22 130.583 -61.116 130.418 -63.044" style=""/>
  <path class="cls-3" d="M 115.769 -78.65 C 115.769 -78.65 116.252 -76.408 116.927 -73.035 C 117.257 -71.352 117.665 -69.386 118.064 -67.272 L 118.685 -64.022 C 118.792 -63.491 118.898 -62.912 119.009 -62.349 L 119.168 -61.509 L 119.168 -61.404 C 119.168 -61.404 119.168 -61.488 119.168 -61.44 L 119.168 -61.398 L 119.168 -61.35 L 119.216 -61.137 L 119.264 -60.93 L 119.291 -60.83 L 119.291 -60.75 C 119.439 -60.309 119.641 -59.888 119.891 -59.496 C 120.156 -59.104 120.47 -58.747 120.826 -58.434 C 121.179 -58.128 121.572 -57.873 121.994 -57.675 C 122.095 -57.621 122.2 -57.575 122.308 -57.537 L 122.626 -57.42 C 122.843 -57.354 123.063 -57.301 123.285 -57.26 C 123.715 -57.186 124.151 -57.161 124.586 -57.186 C 124.698 -57.186 124.799 -57.213 124.905 -57.223 L 125.064 -57.223 L 125.123 -57.223 C 125.123 -57.223 125.181 -57.223 125.085 -57.223 L 125.175 -57.223 C 125.401 -57.263 125.623 -57.32 125.84 -57.393 L 126.1 -57.484 L 126.371 -57.606 C 126.554 -57.683 126.732 -57.773 126.902 -57.877 C 127.072 -57.977 127.215 -58.094 127.375 -58.195 C 127.534 -58.296 127.656 -58.429 127.784 -58.556 C 128.252 -59.017 128.635 -59.556 128.915 -60.15 C 129.133 -60.604 129.278 -61.09 129.345 -61.589 C 129.345 -61.69 129.345 -61.791 129.388 -61.881 C 129.43 -61.971 129.388 -62.062 129.388 -62.142 C 129.401 -62.28 129.401 -62.418 129.388 -62.556 L 129.388 -62.901 L 129.388 -63.044 C 129.337 -63.813 130.137 -64.349 130.828 -64.009 C 131.149 -63.851 131.361 -63.534 131.385 -63.177 C 131.385 -63.177 131.385 -63.012 131.422 -62.705 C 131.436 -62.514 131.436 -62.322 131.422 -62.131 C 131.422 -62.014 131.422 -61.892 131.422 -61.764 C 131.422 -61.637 131.39 -61.499 131.374 -61.35 C 131.285 -60.652 131.092 -59.972 130.801 -59.331 C 130.425 -58.498 129.895 -57.743 129.239 -57.106 C 129.064 -56.931 128.856 -56.772 128.66 -56.602 C 128.463 -56.432 128.235 -56.288 128.001 -56.15 C 127.767 -56.006 127.524 -55.877 127.274 -55.762 L 126.886 -55.587 L 126.45 -55.444 C 126.195 -55.356 125.934 -55.287 125.67 -55.237 L 125.574 -55.237 L 125.5 -55.237 L 125.463 -55.237 L 125.245 -55.205 L 124.799 -55.152 C 124.182 -55.109 123.562 -55.148 122.956 -55.269 C 122.645 -55.326 122.337 -55.404 122.037 -55.502 L 121.591 -55.678 C 121.437 -55.729 121.29 -55.795 121.15 -55.874 C 120.572 -56.153 120.036 -56.511 119.556 -56.936 C 119.062 -57.377 118.629 -57.88 118.266 -58.434 C 118.091 -58.717 117.933 -59.009 117.793 -59.31 C 117.729 -59.47 117.655 -59.608 117.596 -59.778 L 117.427 -60.309 L 117.389 -60.437 L 117.389 -60.543 L 117.341 -60.75 L 117.293 -60.963 L 117.262 -61.116 L 117.262 -61.223 L 117.055 -61.982 C 116.964 -62.545 116.874 -63.103 116.778 -63.66 C 116.598 -64.771 116.412 -65.87 116.247 -66.927 C 115.892 -69.052 115.594 -71.028 115.323 -72.727 C 114.792 -76.121 114.468 -78.389 114.468 -78.389 C 114.42 -78.902 114.945 -79.275 115.413 -79.06 C 115.593 -78.978 115.728 -78.819 115.78 -78.628 L 115.769 -78.65 Z" style=""/>
  <circle class="cls-4" cx="159.169" cy="-128.991" r="19.386" style=""/>
  <path class="cls-3" d="M 159.169 -108.6 C 143.472 -108.6 133.661 -125.592 141.51 -139.186 C 149.359 -152.78 168.979 -152.78 176.828 -139.186 C 178.617 -136.086 179.559 -132.57 179.559 -128.991 C 179.544 -117.735 170.424 -108.615 159.169 -108.6 Z M 159.169 -147.374 C 145.013 -147.378 136.162 -132.056 143.236 -119.796 C 150.31 -107.535 168.004 -107.53 175.085 -119.786 C 176.701 -122.583 177.551 -125.755 177.551 -128.985 C 177.543 -139.136 169.319 -147.364 159.169 -147.379 L 159.169 -147.374 Z" style=""/>
  <path class="cls-3" d="M 155.154 -141.696 C 158.499 -141.026 159.169 -133.67 157.161 -131.667 C 155.844 -130.35 153.151 -129.909 153.151 -129.012 C 153.151 -128.114 155.844 -127.657 157.161 -126.356 C 159.169 -124.348 158.499 -116.992 155.154 -116.323 C 151.17 -115.489 145.115 -120.301 145.115 -128.991 C 145.115 -137.68 151.17 -142.492 155.154 -141.696 Z" style=""/>
  <path class="cls-3" d="M 146.671 -105.679 L 145.736 -105.955 C 145.439 -106.035 145.046 -106.205 144.61 -106.364 C 144.387 -106.444 144.17 -106.544 143.941 -106.651 L 143.219 -106.985 C 142.73 -107.235 142.199 -107.516 141.625 -107.83 C 141.051 -108.143 140.515 -108.483 139.952 -108.892 C 139.389 -109.301 138.816 -109.678 138.237 -110.104 C 137.944 -110.311 137.668 -110.539 137.381 -110.757 C 137.095 -110.974 136.808 -111.203 136.537 -111.442 L 135.703 -112.138 L 134.901 -112.855 C 134.37 -113.327 133.876 -113.827 133.382 -114.294 C 132.888 -114.762 132.442 -115.245 132.028 -115.707 C 131.613 -116.169 131.204 -116.604 130.859 -117.03 C 130.514 -117.454 130.19 -117.831 129.919 -118.187 C 129.648 -118.543 129.388 -118.846 129.228 -119.111 L 128.649 -119.918 C 128.235 -120.571 128.683 -121.427 129.455 -121.46 C 129.78 -121.473 130.092 -121.329 130.291 -121.071 L 130.322 -121.029 C 130.322 -121.029 130.514 -120.742 130.853 -120.248 C 131.013 -119.999 131.236 -119.717 131.491 -119.372 C 131.746 -119.027 132.022 -118.665 132.362 -118.262 C 132.702 -117.858 133.058 -117.438 133.424 -116.987 C 133.791 -116.535 134.258 -116.089 134.704 -115.617 C 135.151 -115.144 135.634 -114.671 136.144 -114.214 L 136.957 -113.503 L 137.742 -112.823 C 138.003 -112.589 138.273 -112.377 138.544 -112.159 C 138.816 -111.941 139.076 -111.718 139.352 -111.516 C 139.883 -111.107 140.414 -110.698 140.946 -110.342 C 141.477 -109.987 142.008 -109.646 142.539 -109.328 C 143.07 -109.009 143.537 -108.76 143.989 -108.526 L 144.653 -108.207 C 144.845 -108.108 145.041 -108.02 145.242 -107.942 L 145.773 -107.735 C 145.922 -107.67 146.075 -107.612 146.23 -107.564 L 147.165 -107.278 C 147.754 -107.012 147.833 -106.208 147.309 -105.831 C 147.129 -105.702 146.905 -105.649 146.687 -105.684 L 146.671 -105.679 Z" style=""/>
  <path class="cls-3" d="M 126.621 -119.345 L 126.759 -119.584 C 126.814 -119.685 126.876 -119.783 126.945 -119.876 C 127.029 -119.999 127.125 -120.142 127.236 -120.28 C 127.348 -120.418 127.47 -120.556 127.614 -120.7 L 127.837 -120.907 L 127.953 -121.019 L 128.102 -121.135 L 128.331 -121.31 L 128.448 -121.4 L 128.602 -121.496 C 128.808 -121.628 129.023 -121.747 129.244 -121.852 C 129.665 -122.051 130.107 -122.201 130.562 -122.298 C 130.773 -122.345 130.988 -122.376 131.204 -122.394 C 131.396 -122.414 131.589 -122.425 131.783 -122.426 L 132.277 -122.426 L 132.654 -122.372 L 132.983 -122.325 C 133.742 -122.159 134.037 -121.234 133.515 -120.66 C 133.304 -120.428 132.998 -120.308 132.686 -120.333 L 132.59 -120.333 L 132.5 -120.333 L 132.283 -120.392 L 132.033 -120.455 L 131.698 -120.497 C 131.566 -120.506 131.432 -120.506 131.3 -120.497 C 131.151 -120.511 131.002 -120.511 130.853 -120.497 C 130.694 -120.486 130.536 -120.461 130.381 -120.423 C 130.217 -120.39 130.055 -120.344 129.898 -120.285 C 129.749 -120.236 129.603 -120.177 129.462 -120.11 L 129.356 -120.062 L 129.228 -119.982 L 128.984 -119.834 L 128.92 -119.797 L 128.894 -119.797 L 128.926 -119.797 L 128.835 -119.722 L 128.655 -119.584 C 128.545 -119.496 128.441 -119.402 128.342 -119.303 C 128.251 -119.218 128.187 -119.132 128.118 -119.063 C 128.051 -118.991 127.988 -118.912 127.932 -118.83 L 127.773 -118.607 C 127.558 -118.306 127.139 -118.237 126.838 -118.453 C 126.543 -118.647 126.448 -119.037 126.621 -119.345 Z" style=""/>
  <path class="cls-2" d="M 158.478 -63.044 C 158.072 -58.298 162.955 -54.892 167.268 -56.913 C 169.022 -57.735 170.289 -59.33 170.694 -61.223 L 173.796 -78.533" style=""/>
  <path class="cls-3" d="M 159.482 -62.975 C 159.482 -62.975 159.482 -62.832 159.482 -62.567 C 159.482 -62.497 159.482 -62.423 159.482 -62.343 L 159.482 -62.136 C 159.482 -62.067 159.482 -61.988 159.482 -61.902 C 159.482 -61.818 159.482 -61.716 159.519 -61.611 C 159.589 -61.113 159.734 -60.629 159.95 -60.177 C 160.226 -59.581 160.609 -59.04 161.081 -58.583 C 161.638 -58.053 162.305 -57.652 163.036 -57.409 C 163.427 -57.296 163.829 -57.227 164.236 -57.202 L 164.432 -57.202 C 164.489 -57.194 164.546 -57.194 164.602 -57.202 L 164.9 -57.202 C 165.004 -57.204 165.11 -57.212 165.213 -57.229 C 165.323 -57.237 165.434 -57.252 165.542 -57.271 C 165.987 -57.36 166.42 -57.499 166.833 -57.685 C 167.251 -57.894 167.641 -58.153 167.996 -58.455 C 168.355 -58.767 168.671 -59.124 168.936 -59.517 C 169.197 -59.918 169.402 -60.353 169.547 -60.808 C 169.587 -60.923 169.619 -61.04 169.643 -61.159 L 169.685 -61.334 L 169.685 -61.419 L 169.685 -61.525 L 169.845 -62.364 C 169.951 -62.928 170.057 -63.485 170.163 -64.037 C 170.375 -65.147 170.588 -66.236 170.79 -67.288 C 171.183 -69.413 171.592 -71.368 171.921 -73.051 C 172.601 -76.424 173.079 -78.665 173.079 -78.665 C 173.171 -79.172 173.778 -79.39 174.171 -79.056 C 174.353 -78.902 174.439 -78.661 174.397 -78.426 C 174.397 -78.426 174.073 -76.158 173.541 -72.764 C 173.265 -71.065 172.973 -69.083 172.612 -66.965 C 172.436 -65.902 172.256 -64.808 172.081 -63.698 C 171.985 -63.167 171.895 -62.583 171.799 -62.019 L 171.661 -61.175 L 171.661 -61.068 L 171.671 -60.92 L 171.613 -60.681 C 171.581 -60.518 171.541 -60.356 171.491 -60.198 C 171.102 -58.919 170.366 -57.775 169.367 -56.889 C 168.879 -56.473 168.344 -56.117 167.773 -55.826 C 167.196 -55.551 166.588 -55.348 165.962 -55.221 C 165.809 -55.19 165.655 -55.167 165.5 -55.152 C 165.344 -55.126 165.185 -55.112 165.027 -55.109 L 164.528 -55.109 C 164.457 -55.104 164.386 -55.104 164.315 -55.109 L 164.119 -55.109 C 163.53 -55.149 162.948 -55.261 162.388 -55.444 C 161.356 -55.783 160.414 -56.349 159.631 -57.101 C 158.971 -57.735 158.441 -58.491 158.069 -59.326 C 157.775 -59.968 157.581 -60.65 157.496 -61.35 C 157.496 -61.494 157.458 -61.626 157.448 -61.764 C 157.437 -61.902 157.448 -62.035 157.448 -62.152 C 157.448 -62.269 157.448 -62.386 157.448 -62.492 C 157.448 -62.598 157.448 -62.646 157.448 -62.715 C 157.475 -62.981 157.485 -63.124 157.485 -63.124 C 157.556 -63.894 158.434 -64.297 159.064 -63.851 C 159.344 -63.654 159.503 -63.328 159.488 -62.986 L 159.482 -62.975 Z" style=""/>
  <path class="cls-2" d="M 149.55 -62.646 C 149.155 -57.903 154.043 -54.512 158.348 -56.542 C 160.346 -57.484 161.689 -59.42 161.872 -61.621 L 163.822 -78.979" style=""/>
  <path class="cls-3" d="M 150.553 -62.641 L 150.553 -62.232 C 150.553 -62.168 150.553 -62.094 150.553 -62.009 C 150.553 -61.924 150.553 -61.881 150.553 -61.807 C 150.553 -61.733 150.553 -61.658 150.553 -61.573 C 150.553 -61.488 150.591 -61.387 150.612 -61.287 C 150.714 -60.796 150.893 -60.324 151.143 -59.889 C 151.456 -59.32 151.87 -58.812 152.364 -58.392 C 152.951 -57.893 153.64 -57.53 154.383 -57.329 C 154.786 -57.229 155.2 -57.175 155.615 -57.17 C 155.743 -57.17 155.886 -57.17 155.993 -57.17 L 156.284 -57.196 C 156.388 -57.206 156.491 -57.222 156.593 -57.244 C 156.704 -57.244 156.81 -57.282 156.917 -57.308 C 157.355 -57.417 157.778 -57.581 158.175 -57.797 C 158.582 -58.021 158.957 -58.298 159.291 -58.62 C 159.976 -59.285 160.465 -60.127 160.704 -61.053 C 160.739 -61.167 160.764 -61.284 160.778 -61.404 L 160.842 -61.759 L 160.948 -62.609 C 161.017 -63.172 161.086 -63.735 161.161 -64.292 C 161.299 -65.408 161.437 -66.502 161.569 -67.564 C 161.83 -69.689 162.1 -71.67 162.329 -73.365 C 162.781 -76.758 163.115 -79.021 163.115 -79.021 C 163.203 -79.529 163.806 -79.752 164.203 -79.422 C 164.365 -79.287 164.454 -79.083 164.443 -78.872 C 164.443 -78.872 164.273 -76.594 163.96 -73.184 C 163.8 -71.479 163.63 -69.466 163.429 -67.341 L 163.099 -64.059 C 163.046 -63.501 162.988 -62.938 162.934 -62.37 L 162.85 -61.52 C 162.85 -61.366 162.802 -61.196 162.775 -61.037 C 162.755 -60.871 162.721 -60.708 162.674 -60.548 C 162.198 -58.609 160.943 -56.953 159.206 -55.969 C 158.65 -55.66 158.058 -55.421 157.442 -55.258 L 156.986 -55.162 C 156.829 -55.13 156.672 -55.107 156.513 -55.093 L 156.019 -55.051 L 155.621 -55.051 C 153.936 -55.059 152.309 -55.666 151.032 -56.767 C 150.333 -57.357 149.757 -58.078 149.338 -58.891 C 149.007 -59.509 148.772 -60.173 148.642 -60.861 C 148.642 -61.01 148.583 -61.137 148.567 -61.276 C 148.551 -61.414 148.567 -61.542 148.535 -61.664 L 148.535 -61.998 C 148.535 -62.078 148.535 -62.152 148.535 -62.221 C 148.535 -62.487 148.535 -62.63 148.535 -62.63 C 148.535 -63.403 149.372 -63.886 150.041 -63.499 C 150.352 -63.321 150.543 -62.989 150.543 -62.63 L 150.553 -62.641 Z" style=""/>
  <path class="cls-2" d="M 139.368 -62.646 L 129.329 -74.113 C 128.43 -73.123 127.055 -72.713 125.76 -73.051 L 127.056 -61.621 C 127.589 -56.887 133.046 -54.506 136.879 -57.334 C 138.555 -58.57 139.496 -60.567 139.383 -62.646 L 139.368 -62.646 Z" style=""/>
  <path class="cls-3" d="M 125.754 -79.037 C 125.754 -79.037 126.09 -76.775 126.546 -73.38 C 126.769 -71.686 127.045 -69.705 127.305 -67.58 C 127.439 -66.518 127.577 -65.424 127.715 -64.308 C 127.784 -63.777 127.858 -63.188 127.927 -62.625 L 128.033 -61.775 C 128.066 -61.524 128.114 -61.276 128.177 -61.032 L 128.262 -60.718 L 128.394 -60.389 C 128.431 -60.275 128.479 -60.164 128.538 -60.06 C 128.596 -59.958 128.644 -59.847 128.702 -59.746 C 128.944 -59.341 129.237 -58.967 129.574 -58.636 C 130.234 -57.995 131.054 -57.545 131.948 -57.329 C 132.372 -57.226 132.807 -57.175 133.244 -57.175 L 133.562 -57.175 L 133.759 -57.175 C 133.759 -57.175 133.674 -57.175 133.722 -57.175 L 133.759 -57.175 L 133.849 -57.175 L 134.221 -57.239 L 134.311 -57.239 L 134.38 -57.239 L 134.513 -57.277 C 134.598 -57.303 134.683 -57.319 134.773 -57.351 L 135.055 -57.457 C 135.238 -57.522 135.415 -57.602 135.586 -57.696 C 135.756 -57.786 135.916 -57.887 136.069 -57.983 C 136.224 -58.078 136.372 -58.195 136.5 -58.317 C 136.995 -58.739 137.411 -59.246 137.727 -59.815 C 137.974 -60.253 138.154 -60.725 138.258 -61.218 C 138.279 -61.317 138.3 -61.412 138.321 -61.504 C 138.321 -61.6 138.321 -61.685 138.321 -61.764 C 138.333 -61.902 138.333 -62.041 138.321 -62.179 C 138.321 -62.402 138.321 -62.519 138.321 -62.519 L 138.321 -62.625 C 138.321 -63.393 139.153 -63.874 139.819 -63.489 C 140.128 -63.311 140.319 -62.981 140.319 -62.625 C 140.319 -62.625 140.319 -62.46 140.319 -62.147 C 140.33 -61.958 140.33 -61.768 140.319 -61.578 C 140.319 -61.469 140.308 -61.346 140.286 -61.212 C 140.286 -61.085 140.239 -60.952 140.212 -60.808 C 140.08 -60.12 139.845 -59.456 139.517 -58.838 C 139.092 -58.028 138.517 -57.307 137.822 -56.713 C 137.636 -56.548 137.424 -56.405 137.217 -56.251 C 137.01 -56.097 136.776 -55.964 136.537 -55.837 C 136.293 -55.711 136.043 -55.597 135.788 -55.497 L 135.39 -55.348 L 134.954 -55.226 L 134.731 -55.173 L 134.614 -55.147 L 134.524 -55.147 L 134.152 -55.083 L 134.062 -55.083 L 133.961 -55.083 L 133.738 -55.083 L 133.291 -55.083 C 131.357 -55.058 129.494 -55.81 128.118 -57.17 C 127.653 -57.639 127.249 -58.166 126.918 -58.737 C 126.838 -58.88 126.769 -59.029 126.695 -59.178 C 126.619 -59.325 126.553 -59.478 126.498 -59.634 L 126.323 -60.102 L 126.185 -60.633 C 126.185 -60.718 126.137 -60.813 126.126 -60.882 L 126.095 -61.095 L 126.063 -61.308 L 126.063 -61.414 L 126.063 -61.467 L 126.063 -61.542 L 126.063 -61.568 L 125.978 -62.418 C 125.919 -62.986 125.866 -63.549 125.808 -64.106 C 125.697 -65.222 125.59 -66.327 125.484 -67.389 C 125.261 -69.514 125.096 -71.511 124.953 -73.232 C 124.639 -76.641 124.464 -78.92 124.464 -78.92 C 124.437 -79.435 124.977 -79.786 125.436 -79.552 C 125.624 -79.456 125.756 -79.277 125.792 -79.069 L 125.754 -79.037 Z" style=""/>
  <path class="cls-2" d="M 137.775 -79.51 L 138.273 -62.126 C 138.413 -57.365 143.654 -54.539 147.708 -57.041 C 149.48 -58.134 150.583 -60.045 150.644 -62.126 L 151.143 -79.51" style=""/>
  <path class="cls-3" d="M 138.438 -79.51 C 138.438 -79.51 138.486 -78.671 138.571 -77.199 C 138.656 -75.728 138.768 -73.625 138.89 -71.107 C 139.012 -68.59 139.123 -65.642 139.256 -62.487 L 139.256 -62.19 L 139.256 -61.945 C 139.263 -61.766 139.284 -61.589 139.32 -61.414 C 139.378 -61.093 139.466 -60.777 139.586 -60.474 C 140.353 -58.475 142.278 -57.16 144.419 -57.17 L 144.584 -57.17 C 144.482 -57.17 144.584 -57.17 144.546 -57.17 L 144.589 -57.17 L 144.668 -57.17 L 144.982 -57.17 L 145.142 -57.17 L 145.253 -57.17 L 145.487 -57.213 C 145.635 -57.213 145.816 -57.298 145.981 -57.335 C 146.145 -57.372 146.305 -57.457 146.469 -57.515 C 147.111 -57.786 147.69 -58.188 148.168 -58.695 C 148.645 -59.192 149.018 -59.779 149.269 -60.42 C 149.335 -60.575 149.388 -60.735 149.428 -60.899 C 149.476 -61.061 149.512 -61.225 149.539 -61.392 C 149.572 -61.555 149.591 -61.72 149.598 -61.887 C 149.598 -61.971 149.598 -62.046 149.598 -62.142 L 149.598 -62.439 C 149.736 -65.594 149.842 -68.536 149.969 -71.059 C 150.097 -73.582 150.198 -75.681 150.288 -77.151 C 150.379 -78.623 150.421 -79.462 150.421 -79.462 C 150.435 -79.977 151.002 -80.283 151.441 -80.014 C 151.644 -79.888 151.766 -79.664 151.759 -79.425 L 151.759 -77.109 C 151.759 -75.633 151.759 -73.529 151.728 -71.006 C 151.695 -68.483 151.642 -65.535 151.6 -62.381 L 151.6 -62.083 C 151.6 -61.982 151.6 -61.86 151.6 -61.749 C 151.59 -61.517 151.563 -61.286 151.52 -61.058 C 151.49 -60.826 151.44 -60.597 151.372 -60.373 C 151.317 -60.143 151.246 -59.918 151.159 -59.698 C 150.471 -57.872 149.081 -56.397 147.298 -55.603 C 147.064 -55.513 146.841 -55.412 146.607 -55.343 C 146.374 -55.274 146.145 -55.199 145.885 -55.152 L 145.492 -55.083 L 145.295 -55.051 L 145.142 -55.051 L 144.828 -55.051 L 144.749 -55.051 L 144.43 -55.051 C 141.428 -55.063 138.748 -56.933 137.7 -59.746 C 137.53 -60.198 137.409 -60.666 137.339 -61.143 C 137.302 -61.356 137.277 -61.57 137.265 -61.785 L 137.265 -62.428 C 137.217 -65.583 137.153 -68.531 137.137 -71.054 C 137.121 -73.577 137.095 -75.681 137.1 -77.157 L 137.1 -79.51 C 137.129 -80.024 137.704 -80.314 138.135 -80.032 C 138.302 -79.923 138.411 -79.744 138.433 -79.547 L 138.438 -79.51 Z" style=""/>
  <path class="cls-5" d="M 231.574 -103.772 L 226.692 -105.403 L 226.31 -107.793 L 230.278 -110.008 L 228.913 -114.188 L 223.723 -114.188 L 222.534 -115.893 L 224.324 -120.583 L 220.998 -123.907 L 216.133 -121.517 L 214.514 -122.288 L 214.163 -127.912 L 209.983 -128.853 L 205.978 -124.603 L 204.528 -124.688 L 202.223 -128.937 L 197.278 -128.088 L 196.343 -122.288 L 194.638 -121.348 L 190.458 -123.823 L 186.618 -120.752 L 188.583 -115.548 L 187.388 -114.103 L 182.443 -114.443 L 180.563 -110.194 L 184.233 -106.353 L 183.978 -104.564 L 179.458 -102.519 L 180.223 -96.718 L 193.103 -100.728 L 196.561 -100.845 C 196.462 -101.312 196.409 -101.787 196.401 -102.264 C 196.401 -106.688 200.3 -111.607 205.324 -111.607 C 210.349 -111.607 214.593 -106.688 214.593 -102.264 C 214.581 -101.889 214.538 -101.516 214.466 -101.148 L 230.782 -97.962 L 231.574 -103.772 Z" style=""/>
  <path class="cls-1" d="M 179.469 -98.748 C 178.868 -98.743 178.348 -99.163 178.226 -99.751 C 178.045 -100.625 177.945 -101.514 177.928 -102.407 C 177.929 -103.476 178.534 -104.453 179.49 -104.93 C 180.615 -105.496 181.788 -105.96 182.996 -106.316 C 182.996 -106.428 183.038 -106.539 183.065 -106.656 C 183.091 -106.773 183.065 -106.901 183.065 -107.033 C 181.978 -107.756 180.954 -108.57 180.005 -109.466 C 179.313 -110.182 179.036 -111.202 179.272 -112.17 C 179.6 -113.209 180.004 -114.223 180.483 -115.202 C 180.982 -116.116 181.944 -116.681 182.985 -116.673 C 184.307 -116.578 185.471 -116.482 186.618 -116.318 L 186.66 -116.382 C 186.719 -116.461 186.782 -116.546 186.846 -116.642 C 186.892 -116.713 186.945 -116.779 187.006 -116.838 L 187.054 -116.907 C 186.435 -118.085 185.891 -119.3 185.423 -120.545 C 185.408 -120.585 185.395 -120.626 185.386 -120.668 C 185.134 -121.631 185.394 -122.656 186.076 -123.382 C 186.798 -124.159 187.587 -124.87 188.434 -125.506 C 189.242 -126.17 190.37 -126.281 191.292 -125.788 C 192.476 -125.092 193.464 -124.45 194.383 -123.785 C 194.544 -123.865 194.708 -123.934 194.877 -123.993 L 195.031 -124.072 C 195.05 -125.591 195.264 -127.101 195.669 -128.565 C 195.889 -129.533 196.614 -130.307 197.565 -130.59 L 198.059 -130.717 C 198.876 -130.946 199.706 -131.123 200.544 -131.248 C 201.642 -131.478 202.76 -130.954 203.285 -129.963 C 203.913 -128.969 204.492 -127.944 205.017 -126.892 L 205.717 -126.892 C 206.353 -128.056 207.047 -129.185 207.8 -130.276 C 207.84 -130.337 207.886 -130.394 207.938 -130.446 C 208.639 -131.166 209.654 -131.487 210.642 -131.301 L 211.05 -131.169 C 211.127 -131.133 211.207 -131.105 211.289 -131.083 C 211.427 -131.089 211.563 -131.061 211.688 -131.004 C 212.017 -130.883 212.352 -130.778 212.691 -130.69 C 212.989 -130.611 213.302 -130.521 213.637 -130.414 L 213.802 -130.345 C 214.736 -129.915 215.351 -128.999 215.395 -127.971 C 215.508 -126.749 215.537 -125.521 215.48 -124.295 C 215.508 -124.279 215.539 -124.267 215.57 -124.258 L 215.735 -124.189 C 215.882 -124.116 216.024 -124.033 216.16 -123.94 C 217.241 -124.639 218.359 -125.277 219.511 -125.851 C 220.437 -126.313 221.548 -126.179 222.337 -125.512 C 222.505 -125.406 222.658 -125.28 222.794 -125.134 C 222.912 -125.069 223.02 -124.985 223.113 -124.885 L 224.631 -123.387 C 225.42 -122.612 225.633 -121.424 225.163 -120.423 C 224.6 -119.165 224.1 -118.107 223.532 -117.125 L 223.569 -117.077 C 223.659 -116.978 223.738 -116.87 223.803 -116.753 L 223.909 -116.541 C 225.215 -116.678 226.527 -116.74 227.84 -116.727 C 228.869 -116.695 229.795 -116.093 230.24 -115.165 C 230.326 -114.99 230.372 -114.797 230.373 -114.602 C 230.479 -114.405 230.554 -114.241 230.633 -114.071 C 230.92 -113.508 231.129 -112.91 231.255 -112.291 C 231.442 -111.335 231.127 -110.35 230.421 -109.678 L 230.304 -109.572 C 229.369 -108.834 228.413 -108.08 227.367 -107.384 L 227.367 -107.171 C 227.37 -107.12 227.37 -107.069 227.367 -107.018 L 227.404 -106.661 C 228.64 -106.184 229.845 -105.628 231.01 -104.999 C 231.904 -104.495 232.452 -103.544 232.439 -102.519 C 232.444 -102.45 232.444 -102.381 232.439 -102.312 C 232.386 -101.988 232.36 -101.685 232.333 -101.398 C 232.309 -101.015 232.263 -100.634 232.195 -100.256 C 232.011 -99.303 230.865 -98.907 230.132 -99.543 C 229.791 -99.838 229.634 -100.292 229.72 -100.734 C 229.772 -101.026 229.807 -101.32 229.826 -101.616 C 229.853 -101.919 229.879 -102.232 229.932 -102.567 C 229.922 -102.645 229.89 -102.72 229.842 -102.784 C 228.552 -103.473 227.213 -104.068 225.837 -104.564 C 225.378 -104.727 225.056 -105.141 225.009 -105.626 L 224.876 -106.757 C 224.873 -106.803 224.873 -106.849 224.876 -106.895 L 224.876 -106.943 L 224.754 -107.873 C 224.69 -108.368 224.923 -108.854 225.348 -109.115 C 226.5 -109.845 227.605 -110.645 228.658 -111.511 C 228.806 -111.681 228.785 -111.771 228.769 -111.84 C 228.679 -112.253 228.535 -112.651 228.339 -113.025 C 228.243 -113.232 228.148 -113.428 228.068 -113.63 C 227.99 -113.8 227.931 -113.978 227.893 -114.161 C 227.867 -114.188 227.836 -114.21 227.802 -114.225 C 226.372 -114.253 224.942 -114.162 223.527 -113.954 C 223.126 -113.883 222.716 -114.012 222.427 -114.299 C 222.288 -114.436 222.172 -114.594 222.082 -114.767 C 221.901 -114.984 221.748 -115.224 221.625 -115.479 C 221.497 -115.638 221.379 -115.807 221.274 -115.983 C 221.237 -116.054 221.192 -116.122 221.142 -116.185 C 220.767 -116.606 220.692 -117.214 220.951 -117.714 C 221.661 -118.929 222.303 -120.183 222.873 -121.47 L 221.445 -122.978 C 221.297 -123.078 221.161 -123.192 221.036 -123.318 C 220.918 -123.388 220.811 -123.474 220.717 -123.573 C 219.396 -122.952 218.129 -122.222 216.93 -121.39 C 216.475 -121.065 215.86 -121.08 215.422 -121.427 C 215.317 -121.477 215.217 -121.537 215.124 -121.608 C 215.007 -121.672 214.912 -121.736 214.816 -121.799 L 214.688 -121.879 C 214.465 -121.967 214.25 -122.075 214.046 -122.203 C 213.965 -122.254 213.879 -122.298 213.791 -122.336 C 213.235 -122.516 212.877 -123.054 212.925 -123.637 C 213.031 -125.032 213.02 -126.434 212.894 -127.827 C 212.879 -127.913 212.829 -127.988 212.755 -128.034 C 212.501 -128.114 212.261 -128.178 212.033 -128.241 C 211.661 -128.343 211.311 -128.443 210.971 -128.571 C 210.712 -128.608 210.459 -128.675 210.216 -128.773 L 209.972 -128.858 C 210.02 -128.858 209.908 -128.784 209.808 -128.709 C 209.006 -127.521 208.268 -126.29 207.598 -125.023 C 207.377 -124.618 206.954 -124.364 206.493 -124.359 L 204.23 -124.359 C 203.714 -124.358 203.249 -124.668 203.051 -125.145 C 202.497 -126.386 201.847 -127.58 201.107 -128.72 C 201.054 -128.72 201.012 -128.757 200.959 -128.757 C 200.204 -128.642 199.456 -128.478 198.722 -128.268 L 198.218 -128.136 C 198.218 -128.136 198.154 -128.029 198.128 -127.918 C 197.713 -126.417 197.523 -124.864 197.565 -123.307 C 197.57 -122.766 197.228 -122.282 196.715 -122.107 C 196.627 -122.065 196.541 -122.017 196.46 -121.964 C 196.225 -121.812 195.974 -121.688 195.711 -121.592 C 195.525 -121.521 195.348 -121.432 195.18 -121.326 L 194.856 -121.151 C 194.425 -120.934 193.907 -120.981 193.523 -121.273 C 192.432 -122.104 191.292 -122.867 190.108 -123.557 L 190.06 -123.557 L 189.943 -123.467 C 189.203 -122.909 188.515 -122.285 187.887 -121.603 C 187.834 -121.519 187.813 -121.419 187.829 -121.321 C 188.334 -119.982 188.937 -118.682 189.634 -117.433 C 189.903 -116.945 189.822 -116.34 189.433 -115.941 C 189.385 -115.877 189.343 -115.809 189.305 -115.739 C 189.19 -115.532 189.054 -115.336 188.902 -115.155 C 188.838 -115.059 188.769 -114.969 188.705 -114.878 C 188.618 -114.773 188.544 -114.657 188.488 -114.533 C 188.291 -113.937 187.687 -113.575 187.07 -113.683 C 185.741 -113.917 184.414 -114.028 182.905 -114.14 C 182.843 -114.116 182.784 -114.084 182.73 -114.045 C 182.333 -113.207 181.991 -112.345 181.705 -111.463 C 181.717 -111.384 181.745 -111.309 181.785 -111.24 C 182.833 -110.278 183.961 -109.408 185.157 -108.638 C 185.619 -108.322 185.816 -107.739 185.641 -107.209 C 185.587 -106.968 185.568 -106.721 185.582 -106.475 C 185.587 -106.341 185.567 -106.205 185.524 -106.077 C 185.471 -105.835 185.451 -105.587 185.465 -105.339 C 185.471 -104.761 185.08 -104.254 184.52 -104.112 C 183.176 -103.772 181.872 -103.288 180.632 -102.667 C 180.527 -102.622 180.458 -102.521 180.451 -102.407 C 180.466 -101.693 180.546 -100.982 180.69 -100.282 C 180.834 -99.601 180.395 -98.934 179.713 -98.795 C 179.634 -98.771 179.552 -98.756 179.469 -98.748 Z M 215.321 -121.539 Z M 190.129 -123.626 Z" style=""/>
  <path class="cls-1" d="M 196.327 -101.637 C 195.629 -101.625 195.053 -102.181 195.042 -102.88 C 194.98 -108.089 198.851 -112.51 204.023 -113.136 C 206.7 -113.5 209.411 -112.767 211.539 -111.102 C 213.674 -109.439 215.068 -107.002 215.422 -104.319 L 215.422 -104.16 L 215.422 -103.151 C 215.422 -102.181 214.372 -101.576 213.534 -102.061 C 213.144 -102.285 212.904 -102.701 212.904 -103.151 L 212.904 -104.08 C 212.624 -106.081 211.574 -107.894 209.977 -109.131 C 208.381 -110.386 206.343 -110.938 204.331 -110.661 C 200.421 -110.175 197.507 -106.819 197.575 -102.88 C 197.564 -102.196 197.011 -101.645 196.327 -101.637 Z" style=""/>
  <path class="cls-6" d="M 204.071 -101.43 C 189.109 -101.324 173.239 -97.409 173.265 -90.366 L 173.456 -63.31 C 173.454 -62.711 173.581 -62.119 173.828 -61.573 C 176.128 -56.31 188.7 -52.709 204.395 -52.82 C 219.358 -52.926 235.227 -56.841 235.201 -63.884 L 235.01 -90.807 C 234.936 -97.85 219.007 -101.536 204.071 -101.43 Z" style=""/>
  <path class="cls-3" d="M 204.352 -67.463 C 188.419 -67.347 175.634 -70.773 173.297 -75.786 C 173.046 -76.303 172.917 -76.869 172.92 -77.444 L 172.814 -92.315 C 172.766 -99.019 188.896 -102.758 204.097 -102.864 C 219.299 -102.97 235.482 -99.465 235.53 -92.772 L 235.637 -78.038 C 235.684 -71.304 219.554 -67.57 204.352 -67.463 Z M 204.119 -100.336 C 192.073 -100.251 175.3 -97.149 175.331 -92.321 L 175.438 -77.449 C 175.434 -77.251 175.476 -77.055 175.56 -76.875 C 177.153 -73.449 188.599 -69.859 204.331 -69.97 C 216.378 -70.055 233.151 -73.157 233.119 -77.985 L 233.013 -92.719 C 232.992 -95.975 221.986 -100.463 204.119 -100.336 Z" style=""/>
  <path class="cls-3" d="M 204.247 -82.197 C 189.045 -82.091 172.862 -85.597 172.814 -92.289 C 172.766 -98.981 188.896 -102.731 204.097 -102.837 C 219.299 -102.944 235.482 -99.438 235.53 -92.746 C 235.578 -86.053 219.474 -82.303 204.247 -82.197 Z M 204.119 -100.336 C 186.246 -100.208 175.31 -95.555 175.331 -92.321 C 175.352 -89.086 186.358 -84.587 204.225 -84.715 C 222.093 -84.842 233.034 -89.469 233.013 -92.73 C 232.992 -95.991 221.986 -100.463 204.119 -100.336 Z" style=""/>
  <path class="cls-3" d="M 204.178 -51.359 C 188.243 -51.359 175.496 -54.87 173.186 -59.9 C 172.937 -60.417 172.812 -60.984 172.819 -61.557 L 172.819 -79.329 L 175.336 -76.403 L 175.336 -61.53 C 175.333 -61.335 175.375 -61.14 175.459 -60.963 C 177.052 -57.52 188.445 -53.851 204.178 -53.851 C 216.223 -53.851 233.023 -56.82 233.023 -61.658 L 233.023 -76.281 L 235.541 -79.143 L 235.541 -61.669 C 235.541 -54.961 219.384 -51.359 204.178 -51.359 Z" style=""/>
  <g transform="matrix(0.569325, 0, 0, 0.569325, 100.344414, -212.269424)" style="">
    <svg height="4762.204856872559" id="l9a512ycp8" overflow="visible" viewBox="0 0 1122.5197162628174 793.7008094787598" width="6735.118297576904" transform="matrix(5.999999565013231, 0, 0, 5.999999565013231, 0, 0.0002946949868487536)">
      <g id="l9iabm4zns" class="Group.cls" transform="translate(6.381109692630872 13.901134013120235)">
        <g class="Prim.cls">
          <g id="l9iabm4ems" transform="matrix(1, 0, 0, 1, -19.171227, 35.405487)" class="">
            <path d="M 1.788 5.831 C 1.788 5.127 2.618 4.878 3.198 4.878 C 3.695 4.878 4.358 5.085 4.69 5.5 L 6.1 3.967 C 5.313 3.263 4.277 2.973 3.24 2.973 C 1.375 2.973 -0.365 4.009 -0.365 6.039 C -0.365 9.189 4.027 8.235 4.027 9.975 C 4.027 10.638 3.281 10.969 2.577 10.969 C 1.873 10.969 1.21 10.639 0.754 10.099 L -0.656 11.674 C 0.214 12.504 1.291 12.834 2.494 12.834 C 4.441 12.834 6.099 11.84 6.099 9.726 C 6.099 6.453 1.789 7.571 1.789 5.831 M 12.729 7.903 C 12.729 6.163 13.889 4.878 15.464 4.878 C 16.251 4.878 16.831 5.178 17.246 5.665 L 18.821 4.339 C 18.034 3.345 16.708 2.972 15.671 2.972 C 12.729 2.972 10.616 4.878 10.616 7.902 C 10.616 10.926 12.729 12.832 15.671 12.832 C 16.955 12.832 18.271 12.335 19.069 11.216 L 17.329 9.932 C 16.915 10.554 16.209 10.926 15.382 10.926 C 13.89 10.926 12.73 9.642 12.73 7.901 M 28.02 8.605 L 31.542 3.219 L 29.097 3.219 L 26.984 6.741 L 24.994 3.219 L 22.424 3.219 L 25.946 8.605 L 25.946 12.625 L 28.018 12.625 L 28.02 8.605 Z M 35.727 12.583 L 41.611 12.583 L 41.611 10.681 L 37.799 10.681 L 37.799 3.221 L 35.722 3.221 L 35.727 12.583 Z M 46.293 12.583 L 52.177 12.583 L 52.177 10.681 L 48.362 10.681 L 48.362 3.221 L 46.29 3.221 L 46.293 12.583 Z M 65.683 12.583 L 61.581 3.177 L 59.881 3.177 L 55.821 12.583 L 58.101 12.583 L 58.888 10.593 L 59.551 8.853 L 60.711 5.953 L 61.871 8.853 L 62.575 10.593 L 63.405 12.583 L 65.683 12.583 Z" stroke="none" stroke-linejoin="miter" stroke-linecap="butt" fill="#372950" fill-rule="nonzero"/>
          </g>
          <g id="l9iabm4gmu" transform="translate(0 -1.7763568394002505e-15)" class=""/>
          <g id="l9iabm4hmv" transform="translate(17.03054557482266 25.241493225097656)" class=""/>
          <g id="l9iabm4hmw" transform="translate(16.735282270003964 25.099378769639145)" class=""/>
          <g id="l9iabm4hmx" transform="translate(2.7940673828125 4.546310424804686)" class=""/>
          <g id="l9iabm4imy" transform="translate(8.754534091688743 6.462419138435605)" class=""/>
          <g id="l9iabm4imz" transform="translate(5.777587890625 17.995811462402344)" class=""/>
          <g id="l9iabm4in0" transform="translate(10.892181396484375 16.811878204345703)" class=""/>
          <g id="l9iabm4jn1" transform="translate(4.339110851259036 14.349292755126951)" class=""/>
          <g id="l9iabm4jn2" transform="translate(4.21478271484375 25.241493225097656)" class=""/>
          <g id="l9iabm4jn3" transform="translate(3.977996826171875 25.05206298828125)" class=""/>
          <g id="l9iabm4kn4" transform="translate(7.15093994140625 25.14678192138672)" class=""/>
          <g id="l9iabm4kn5" transform="translate(6.961517333984375 24.957351684570312)" class=""/>
          <g id="l9iabm4kn6" transform="translate(14.388633322762864 25.099422454833984)" class=""/>
          <g id="l9iabm4kn7" transform="translate(14.11248779296875 24.944754352367696)" class=""/>
          <g id="l9iabm4ln8" transform="translate(10.892181396484375 24.909992218017578)" class=""/>
          <g id="l9iabm4ln9" transform="translate(10.7027587890625 24.720565795898438)" class=""/>
        </g>
      </g>
    </svg>
  </g>
  <g clip-path="url(#a)" transform="matrix(1.25, 0, 0, -1.25, -295.972382, 733.458374)">
    <path d="M61.491 609.137c1.824 0 3.552-.432 4.417-1.296.144-1.345-1.057-3.505-1.825-3.505-.912.336-1.776.53-2.832.53-4.368 0-6.529-4.514-6.529-8.978 0-2.784.96-4.465 3.17-4.465 2.351 0 4.751 1.584 6.095 2.784.336-.239.768-1.008.768-1.872 0-.96-.288-1.872-1.152-2.736-1.536-1.536-4.128-2.832-7.873-2.832-4.32 0-7.296 2.448-7.296 8.161 0 7.488 4.944 14.21 13.01 14.21zm14.111-17.473c2.352 0 6.625 4.129 7.825 12 .048.48.096.625.192 1.105a6.019 6.019 0 01-1.969.336c-1.776 0-3.6-.528-5.232-2.736-1.68-2.352-2.4-5.28-2.4-7.633 0-2.015.576-3.072 1.536-3.072zm-7.729 2.16c0 2.832.96 7.777 4.561 11.377 3.072 3.168 6.816 3.937 10.225 3.937 2.256 0 5.328-.72 7.248-1.105-.48-2.112-1.632-10.08-2.16-14.688-.24-1.97-.336-4.705-.24-5.713-1.584-.672-4.56-.864-5.377-.864-.43 0-.528 1.968-.383 3.84.047.624.144 1.536.191 1.92-1.872-3.12-5.568-5.76-9.456-5.76-2.784 0-4.609 2.304-4.609 7.008zm33.985 15.313c1.968 0 3.84-.72 4.705-1.632-.048-1.345-1.104-3.6-2.785-2.976-.72.24-1.44.431-2.4.431-1.296 0-2.4-.576-2.4-1.775 0-.912.672-1.585 3.888-3.84 2.305-1.68 3.217-3.169 3.217-5.28 0-3.506-3.313-7.298-9.073-7.298-2.352 0-4.417.912-5.09 1.872-.863 1.44-.191 4.272.77 3.793 1.248-.624 3.312-1.297 4.992-1.297 1.584 0 2.592.721 2.592 1.681 0 .815-.72 1.536-3.648 3.6-2.45 1.824-3.217 3.504-3.217 5.424 0 3.984 3.409 7.297 8.4 7.297zm16.559 0c1.969 0 3.841-.72 4.705-1.632-.048-1.345-1.103-3.6-2.784-2.976-.72.24-1.441.431-2.4.431-1.296 0-2.4-.576-2.4-1.775 0-.912.672-1.585 3.888-3.84 2.304-1.68 3.216-3.169 3.216-5.28 0-3.506-3.313-7.298-9.073-7.298-2.352 0-4.416.912-5.088 1.872-.864 1.44-.192 4.272.768 3.793 1.248-.624 3.312-1.297 4.992-1.297 1.584 0 2.592.721 2.592 1.681 0 .815-.72 1.536-3.648 3.6-2.448 1.824-3.216 3.504-3.216 5.424 0 3.984 3.408 7.297 8.401 7.297zm15.119-17.473c2.353 0 6.625 4.129 7.825 12 .048.48.097.625.193 1.105a6.024 6.024 0 01-1.969.336c-1.776 0-3.6-.528-5.233-2.736-1.679-2.352-2.4-5.28-2.4-7.633 0-2.015.576-3.072 1.537-3.072zm-7.729 2.16c0 2.832.961 7.777 4.561 11.377 3.072 3.168 6.816 3.937 10.225 3.937 2.256 0 5.33-.72 7.25-1.105-.48-2.112-1.633-10.08-2.16-14.688-.242-1.97-.337-4.705-.242-5.713-1.584-.672-4.559-.864-5.376-.864-.43 0-.528 1.968-.384 3.84.048.624.144 1.536.192 1.92-1.872-3.12-5.568-5.76-9.456-5.76-2.785 0-4.61 2.304-4.61 7.008zm32.881 9.073c2.209 3.552 5.088 6.24 9.121 6.24 3.408 0 4.512-3.168 3.889-7.68-.336-2.113-.912-5.137-1.297-7.921-.336-2.353-.576-4.464-.527-5.905-1.248-.624-4.897-.864-5.713-.864-.336 0-.385 2.641.048 5.425.383 2.304 1.2 6.48 1.584 8.881.241 1.391.192 3.072-1.152 3.072-1.777 0-6-2.833-8.113-14.449-.145-.96-.528-1.536-1.057-1.872-.719-.433-2.256-.817-5.375-.865.576 2.928 1.488 8.929 2.16 13.345.623 4.032.864 6.625.719 7.633.817.288 5.09 1.2 5.568 1.2.53 0 .625-1.488.145-5.089-.047-.336-.096-.863-.145-1.151zm24.385-11.186c2.11 0 6.385 3.937 7.584 10.897.049.384.193 1.104.289 1.537-.625.576-1.441.96-2.736.96-4.85 0-7.01-5.809-7.01-9.986 0-2.256.769-3.408 1.824-3.408zm-3.168-4.944c-3.072 0-4.992 2.736-4.992 7.44 0 7.777 4.847 14.93 13.008 14.93 1.44 0 2.736-.384 3.552-.864.432 2.208 1.44 9.025 1.489 11.041 1.343.24 4.224.671 5.519.671.53 0 .674-.527.48-1.727-1.152-7.2-3.214-21.026-3.6-24.099-.288-2.592-.335-5.136-.288-6.576-1.535-.672-4.656-.816-5.471-.816-.338 0-.53 2.208-.433 4.176.049.624.144 1.537.144 1.68-2.4-3.936-5.713-5.856-9.361-5.856zm28.127 15.457c2.545 5.665 5.568 6.913 7.537 6.913.625 0 1.584-.384 2.016-.864.193-1.584-1.055-4.752-2.16-5.952-.577.288-1.295.576-2.112.576-1.633 0-4.85-2.545-6.865-13.489-.145-.913-.432-1.297-.96-1.537-.815-.48-4.032-.864-5.567-.912.718 3.937 1.966 11.953 2.447 16.658.144 1.2.19 3.408.096 4.272.912.432 4.513 1.248 5.328 1.248.433 0 .769-2.64.095-6.913zm16.943-10.56c2.354 0 6.625 4.129 7.826 12 .047.48.096.625.192 1.105a6.019 6.019 0 01-1.969.336c-1.776 0-3.6-.528-5.233-2.736-1.679-2.352-2.4-5.28-2.4-7.633 0-2.015.576-3.072 1.537-3.072zm-7.729 2.16c0 2.832.961 7.777 4.561 11.377 3.072 3.168 6.816 3.937 10.225 3.937 2.256 0 5.328-.72 7.25-1.105-.48-2.112-1.633-10.08-2.16-14.688-.24-1.97-.338-4.705-.24-5.713-1.585-.672-4.56-.864-5.378-.864-.43 0-.527 1.968-.384 3.84.048.624.144 1.536.193 1.92-1.873-3.12-5.568-5.76-9.457-5.76-2.785 0-4.61 2.304-4.61 7.008z" fill="#373535"/>
  </g>
  <g clip-path="url(#b)" transform="matrix(1.25, 0, 0, -1.25, -295.972382, 733.458374)">
    <path d="M210.878 690.483c1.584-18.452-27.455-36.014-64.859-39.223-37.404-3.209-69.01 9.151-70.592 27.602-1.584 18.455 27.455 36.016 64.86 39.225 37.403 3.208 69.01-9.149 70.591-27.604" fill="#bbe6fb"/>
  </g>
  <g clip-path="url(#c)" transform="matrix(1.25, 0, 0, -1.25, -295.972382, 733.458374)">
    <g clip-path="url(#d)" opacity=".35">
      <path d="M141.384 715.923c-14.268.232-30.964-5.433-43.387-10.738a35.89 35.89 0 01-1.989-11.797c0-21.888 19.764-39.634 44.145-39.634 24.381 0 44.145 17.746 44.145 39.634 0 6.927-1.984 13.435-5.463 19.101-9.939 1.545-23.609 3.21-37.45 3.434" fill="#fff"/>
    </g>
  </g>
  <g clip-path="url(#e)" transform="matrix(1.25, 0, 0, -1.25, -295.972382, 733.458374)">
    <path d="M140.153 715.928c-7.9.482-21.514-3.64-32.867-7.75a33.739 33.739 0 01-2.683-13.201c0-19.178 17.388-34.725 35.782-34.725 18.273 0 34.44 15.572 35.782 34.725.436 6.237-1.711 12.114-4.692 17.18-11.77 2.074-24.261 3.34-31.322 3.77" fill="#fff"/>
  </g>
  <g clip-path="url(#f)" transform="matrix(1.25, 0, 0, -1.25, -295.972382, 733.458374)" fill="#373535">
    <path d="M119.882 697.495c.969 2.146 2.437 3.197 3.859 4.996-.158.426-.504 1.819-.504 2.302a3.907 3.907 0 003.906 3.906 3.89 3.89 0 001.44-.278c6.465 4.927 14.976 7.075 23.529 5.163a29.763 29.763 0 002.299-.623c-8.453 1.172-17.981-1.822-24.462-7.053.198-.467.747-1.802.747-2.34 0-2.156-1.396-2.681-3.553-2.681-.49 0-.958.094-1.391.259-1.464-1.966-3.258-5.711-4.136-8.052 3.584-3.206 6.822-4.368 11.042-5.945-.011.2.145.387.145.592 0 6.503 5.725 11.788 12.229 11.788 5.828 0 10.654-4.238 11.596-9.798 2.908 1.85 5.72 3.268 7.863 6.01-.5.61-1.04 2.337-1.04 3.187a3.545 3.545 0 003.546 3.544c.277 0 .543-.04.802-.1a31.013 31.013 0 012.434 7.05c-10.17 7.529-29.847 6.502-29.847 6.502s-15.658.817-26.258-4.35c.707-5.11 2.746-9.97 5.754-14.08"/>
    <path d="M168.49 700.428a6.551 6.551 0 001.42-1.77c.952-1.71-.956-3.276-2.913-3.276a3.5 3.5 0 00-.582.06c-2.205-3.447-6.067-7.866-9.498-10.09 5.26-.862 10.222-2.969 14.17-6.225 2.875 5.151 5.08 12.59 5.08 18.907 0 4.81-2.123 8.334-5.328 10.92-.168-2.576-1.543-6.179-2.348-8.526m-42.707-32.625c1.753 4.841 6.065 8.592 10.144 11.892-.597.817-1.492 2.84-1.865 3.798a28.545 28.545 0 00-12.79 8.094c-.026-.109-.057-.215-.083-.324a25.873 25.873 0 01-.44-8.584 5.13 5.13 0 004.184-5.042c0-1.489-1.305-3.647-2.318-4.586 1.101-2.376 1.852-3.522 3.168-5.248"/>
    <path d="M125.476 663.74c-2.091 2.078-3.537 6.225-4.894 8.83a5.13 5.13 0 00-.78-.067c-2.836 0-5.807 2.38-5.135 5.134.372 1.524 1.424 2.521 3.137 3.353-.39 3.157-.496 7.695.237 10.977.21.94.655 1.38.95 2.273-3.13 4.58-5.151 10.59-5.151 16.552 0 .218.01.433.016.65-5.288-2.653-9.253-6.83-9.253-13.408 0-14.548 8.379-28.819 20.846-34.413.009.04.017.08.027.118m30.655 20.112c-1.61-4.582-5.967-7.873-11.1-7.873-2.746 0-5.265.947-7.267 2.521-4.127-3.214-7.87-8.86-9.774-13.758.854-.919 1.45-1.675 2.407-2.49 2.887-.752 6.863 0 9.988 0 12.57 0 23.703 5.592 30.086 15.398-4.244 2.94-9.25 5.736-14.34 6.202"/>
  </g>
  <g clip-path="url(#g)" transform="matrix(1.25, 0, 0, -1.25, -295.972382, 733.458374)" fill="#1287b1">
    <path d="M119.56 695.794a28.451 28.451 0 003.605 5.931c-.158.425-.25.884-.25 1.367a3.907 3.907 0 003.906 3.906 3.89 3.89 0 001.44-.278c6.465 4.927 14.976 7.075 23.529 5.163a29.763 29.763 0 002.299-.623c-8.453 1.172-17.187-1.419-23.668-6.65a3.906 3.906 0 00-3.6-5.423c-.49 0-.958.093-1.391.258a26.294 26.294 0 01-3.54-6.48c3.079-3.317 6.857-5.94 11.076-7.517-.01.201-.031.4-.031.605 0 6.503 5.27 11.775 11.775 11.775 5.828 0 10.654-4.238 11.596-9.798 2.908 1.85 5.492 4.226 7.634 6.968a3.5 3.5 0 00-.81 2.23 3.545 3.545 0 003.545 3.543c.277 0 .543-.04.802-.1a31.013 31.013 0 012.434 7.05c-10.17 7.53-29.847 6.502-29.847 6.502s-15.658.817-26.258-4.349c.707-5.11 2.746-9.97 5.754-14.08"/>
    <path d="M169.04 699.848a3.518 3.518 0 001.18-2.62 3.546 3.546 0 00-3.545-3.546 3.5 3.5 0 00-.582.06 28.689 28.689 0 00-8.56-8.609 28.662 28.662 0 0013.794-6.2 35.595 35.595 0 014.518 17.401c0 4.81-2.123 8.334-5.328 10.92a28.518 28.518 0 00-1.477-7.406m-42.715-33.208a28.567 28.567 0 008.878 12.484 11.755 11.755 0 00-1.462 2.67 28.54 28.54 0 00-12.79 8.093c-.026-.109-.058-.215-.083-.324a25.82 25.82 0 01-.44-8.584 5.131 5.131 0 004.184-5.042 5.124 5.124 0 00-1.652-3.767 30.815 30.815 0 013.365-5.53"/>
    <path d="M125.462 663.798a28.624 28.624 0 00-5.202 7.07 5.152 5.152 0 00-.78-.065 5.13 5.13 0 00-2.238 9.75 28.47 28.47 0 001.238 12.463 28.394 28.394 0 00-4.962 16.076c0 .218.01.433.015.648-5.288-2.65-9.253-6.83-9.253-13.406 0-14.549 8.688-27.06 21.155-32.654.009.04.017.08.027.118m30.348 18.352c-1.612-4.581-5.968-7.872-11.1-7.872a11.72 11.72 0 00-7.268 2.52c-4.127-3.213-7.242-7.594-9.144-12.493a31.844 31.844 0 012.723-2.6 35.835 35.835 0 019.042-1.154c12.57 0 23.621 6.49 30.004 16.295-4.244 2.94-9.168 4.839-14.258 5.305"/>
  </g>
  <g clip-path="url(#h)" transform="matrix(1.25, 0, 0, -1.25, -295.972382, 733.458374)">
    <g clip-path="url(#i)">
      <path d="M156.222 685.187l10.88 2.595-10.92.557 8.886 6.792-10.084-3.615 6.853 9.497-9.465-6.291 3.31 11.117-6.5-9.163-.149 11.579-4.277-10.314-3.566 10.437.193-12.295-6.163 11.021 3.335-11.702-9.997 7.27 7.831-9.84-12.41 4.564 9.794-7.247-12.56-.386 12.842-3.314-12.853-2.779 12.687-.92-10.699-6.851 11.017 3.994-7.644-9.681 9.66 7.79-3.479-12.991 7.457 10.572-1.045-12.486 4.233 11.319 3.603-11.897.876 11.933 5.348-10.181-3.16 11.645 9.793-7.586-6.322 9.672 10.744-4.186-8.215 8.073 11.016-.866z" fill="#fff"/>
    </g>
  </g>
  <g clip-path="url(#j)" transform="matrix(1.25, 0, 0, -1.25, -295.972382, 733.458374)">
    <g clip-path="url(#k)" opacity=".35">
      <path d="M40.403 664.37c33.74 33.74 60.687 44.155 85.143 48.91 3.236.63 3.848 7.7 3.848 7.7s.453-5.208 2.718-5.887c2.264-.68 5.207 8.152 5.207 8.152s-2.717-7.926 0-8.379c2.718-.453 7.7 7.7 7.7 7.7s-2.038-7.02-.679-7.473c1.357-.453 8.15 10.19 8.15 10.19s-4.076-7.02-.226-7.7c3.851-.679 9.467 4.791 9.467 4.791s-4.416-5.005-2.448-5.696c8.38-2.945 15.16 7.945 15.16 7.945s-1.572-4.775-5.648-9.983c8.83-2.264 15.39 11.04 15.39 11.04l-6.56-13.304c3.397-1.813 16.985 13.812 16.985 13.812s-7.02-12.228-11.096-14.718c2.264-1.812 10.416 5.434 10.416 5.434s-6.567-8.15-4.076-8.604c3.623-2.944 16.982 15.171 16.982 15.171s-5.207-10.642-12.906-19.02c6.435-3.22 22.418 17.435 22.418 17.435s-.453-6.567-12.002-16.983c8.605 1.132 19.701 17.436 19.701 17.436s-4.076-12.228-13.814-20.832c8.45.88 21.964 21.738 21.964 21.738s-5.207-14.492-15.849-22.87c11.775-2.605 28.758 14.944 28.758 14.944s-6.68-12.455-15.399-17.549c9.738-3.736 23.098 11.662 23.098 11.662s-13.36-20.607-34.645-19.7c-6.984.296-28.109 21.187-73.368 19.473-59.78-2.265-72.46-27.626-104.389-44.835" fill="#373535"/>
    </g>
    <path d="M41.786 666.933c33.74 33.739 60.686 44.154 85.142 48.91 3.237.629 3.85 7.699 3.85 7.699s.451-5.21 2.717-5.887c2.264-.68 5.207 8.15 5.207 8.15s-2.717-7.925 0-8.377c2.718-.452 7.7 7.699 7.7 7.699s-2.038-7.02-.68-7.472c1.358-.453 8.151 10.19 8.151 10.19s-4.076-7.02-.226-7.7c3.85-.68 9.467 4.79 9.467 4.79s-4.416-5.004-2.448-5.695c8.38-2.944 15.157 7.945 15.157 7.945s-1.57-4.775-5.645-9.983c8.83-2.265 15.39 11.04 15.39 11.04l-6.56-13.305c3.397-1.811 16.983 13.812 16.983 13.812s-7.018-12.226-11.094-14.717c2.264-1.812 10.416 5.434 10.416 5.434s-6.567-8.152-4.076-8.604c3.623-2.945 16.982 15.17 16.982 15.17s-5.209-10.642-12.906-19.02c6.435-3.22 22.418 17.436 22.418 17.436s-.453-6.568-12.002-16.984c8.605 1.133 19.701 17.437 19.701 17.437s-4.076-12.228-13.814-20.833c8.45.879 21.964 21.738 21.964 21.738s-5.207-14.492-15.849-22.87c11.775-2.604 28.758 14.944 28.758 14.944s-6.68-12.453-15.399-17.548c9.738-3.736 23.098 11.662 23.098 11.662s-13.36-20.607-34.647-19.701c-6.982.298-28.107 21.189-73.367 19.474-59.779-2.264-72.46-27.625-104.388-44.834" fill="#373535"/>
  </g>
  <g clip-path="url(#l)" transform="matrix(1.25, 0, 0, -1.25, -295.972382, 733.458374)">
    <g clip-path="url(#m)" opacity=".35">
      <path d="M39.52 660.68c17.831-8.945 34.136 1.358 54.685-4.433 15.624-4.404 34.646-9.833 60.459-6.096 25.814 3.735 47.893 14.944 58.424 34.985 3.283 8.943 16.642-2.039 16.642-2.039s-9.736 4.076-9.51 2.151c.227-1.924 14.606-8.604 14.606-8.604s-13.021 4.076-12.228 1.02c.792-3.058 16.301-15.286 16.301-15.286s-17.548 13.36-19.019 11.55c-1.473-1.813 7.472-9.173 7.472-9.173s-14.832 9.172-20.04 6.467c-3.747-1.943 15.398-14.506 15.398-14.506s-12.455 9.512-15.399 7.021c-2.943-2.492 14.04-22.87 14.04-22.87s-19.249 20.832-21.172 19.813c-1.926-1.019 5.32-10.983 5.32-10.983s-9.51 10.417-12.113 8.605c-2.604-1.812 13.586-28.87 13.586-28.87s-17.549 27.737-24.795 23.097c11.38-24.966 7.134-28.533 7.134-28.533s-1.452 25.47-15.625 24.796c-7.133-.34 3.396-19.02 3.396-19.02s-9.691 17.061-16.145 16.721c11.894-22.51 7.654-31.667 7.654-31.667s1.967 19.226-14.166 29.925c6.113-5.433-3.836-29.925-3.836-29.925s8.752 36.091-6.455 29.21c-2.403-1.085-.17-18.002-.17-18.002s-3.057 19.362-7.64 18.342c-2.674-.593-16.985-26.833-16.985-26.833s11.72 28.362 8.153 27.173c-2.598-.867-7.473-12.568-7.473-12.568s2.377 11.55 0 12.228c-2.377.68-15.625-12.228-15.625-12.228s9.851 11.55 8.152 13.927c-2.574 3.603-5.59 3.772-9.17 2.377-5.21-2.03-12.228-11.548-12.228-11.548s6.996 9.637 5.773 13.247c-1.963 5.8-22.077-11.209-22.077-11.209s11.888 11.21 9.171 13.587c-2.717 2.377-17.47 1.642-22.078 1.655-13.586.042-18.294 3.23-22.418 6.496" fill="#373535"/>
    </g>
    <path d="M38.84 662.718c17.833-8.945 34.137 1.358 54.686-4.434 15.623-4.402 34.646-9.832 60.46-6.095 25.814 3.736 47.89 14.945 58.422 34.984 3.283 8.944 16.642-2.037 16.642-2.037s-9.736 4.075-9.51 2.15c.227-1.924 14.606-8.604 14.606-8.604s-13.021 4.075-12.228 1.018c.793-3.056 16.304-15.284 16.304-15.284s-17.55 13.361-19.021 11.548c-1.471-1.81 7.473-9.17 7.473-9.17s-14.833 9.17-20.041 6.467c-3.747-1.944 15.398-14.506 15.398-14.506s-12.455 9.511-15.398 7.02c-2.944-2.492 14.04-22.87 14.04-22.87s-19.25 20.832-21.173 19.813c-1.924-1.02 5.322-10.982 5.322-10.982s-9.512 10.416-12.115 8.604c-2.604-1.81 13.586-28.87 13.586-28.87s-17.55 27.738-24.795 23.096c11.379-24.965 7.133-28.532 7.133-28.532s-1.452 25.47-15.625 24.795c-7.133-.34 3.396-19.02 3.396-19.02s-9.691 17.063-16.144 16.723c11.896-22.512 7.654-31.668 7.654-31.668s1.967 19.227-14.166 29.926c6.113-5.434-3.836-29.926-3.836-29.926s8.754 36.091-6.453 29.21c-2.403-1.086-.17-18.002-.17-18.002s-3.06 19.361-7.642 18.342c-2.674-.593-16.985-26.833-16.985-26.833s11.719 28.362 8.153 27.172c-2.598-.865-7.473-12.566-7.473-12.566s2.378 11.548 0 12.227c-2.377.68-15.624-12.227-15.624-12.227s9.85 11.548 8.15 13.926c-2.573 3.603-5.59 3.771-9.17 2.376-5.21-2.029-12.227-11.547-12.227-11.547s6.996 9.638 5.774 13.247c-1.964 5.8-22.077-11.209-22.077-11.209s11.888 11.21 9.17 13.586c-2.717 2.378-17.471 1.642-22.078 1.656-13.586.043-18.293 3.23-22.417 6.496" fill="#373535"/>
  </g>
</svg>